<svg fill="none" height="40" viewBox="0 0 46 40" width="46" xmlns="http://www.w3.org/2000/svg">
    <path
        d="M3.93934 18.9393C3.35355 19.5251 3.35355 20.4749 3.93934 21.0607L13.4853 30.6066C14.0711 31.1924 15.0208 31.1924 15.6066 30.6066C16.1924 30.0208 16.1924 29.0711 15.6066 28.4853L7.12132 20L15.6066 11.5147C16.1924 10.9289 16.1924 9.97919 15.6066 9.3934C15.0208 8.80761 14.0711 8.80761 13.4853 9.3934L3.93934 18.9393ZM41 21.5C41.8284 21.5 42.5 20.8284 42.5 20C42.5 19.1716 41.8284 18.5 41 18.5V21.5ZM5 21.5H41V18.5H5V21.5Z"
        fill="#31B9E4" />
</svg>
