<svg fill="none" height="63" viewBox="0 0 63 63" width="63" xmlns="http://www.w3.org/2000/svg">
    <g clip-path="url(#clip0_311_1729)">
        <path
            d="M47.0879 37.0831H52.7257V29.6319H44.393C44.891 30.2332 45.3403 31.0043 45.5397 31.7669C45.964 33.1374 45.2215 34.6211 43.8806 35.0774C42.5108 35.5438 41.0149 34.7947 40.5677 33.3689C40.2315 32.2967 40.9192 31.8665 39.1724 31.2385C38.4976 30.9953 38.0504 30.3803 37.9753 29.7012C37.9419 29.3998 37.9794 29.0974 38.1012 28.8019C37.9801 28.8317 36.7885 29.0607 36.5739 29.0666L36.3551 30.288C34.9122 31.128 33.9414 32.6903 33.9414 34.4804V44.4236C33.9414 45.4258 34.7539 46.2384 35.7561 46.2384H36.8595V49.4713C36.8595 51.4201 38.4394 52.9999 40.3883 52.9999C42.3372 52.9999 43.9171 51.4201 43.9171 49.4713V46.2384H46.9689V47.7657C46.9689 48.2785 47.3846 48.6943 47.8975 48.6943H52.7257V43.7187V43.7166H48.9099C48.2879 43.7166 47.7835 43.2123 47.7835 42.5902C47.7835 41.9682 48.2879 41.4638 48.9099 41.4638H52.7257V39.3359H47.0879C46.4658 39.3359 45.9615 38.8316 45.9615 38.2095C45.9615 37.5875 46.4658 37.0831 47.0879 37.0831ZM40.2967 41.264C38.7102 41.264 37.1352 39.9272 37.1352 38.0654C37.1352 36.3123 38.5563 34.8912 40.3094 34.8912C42.0624 34.8912 43.4835 36.3123 43.4835 38.0654C43.4836 39.8865 41.9596 41.264 40.2967 41.264Z"
            fill="#31B9E4" />
        <path
            d="M43.7373 16.3339H40.1028C39.3798 16.3339 38.7606 16.852 38.6332 17.5637L38.4551 18.5585C39.3577 18.7609 40.0971 19.4359 40.3785 20.3662C40.607 21.1218 40.5315 22.5377 39.794 23.9681C39.9413 23.8834 40.1159 23.7971 40.6152 23.4362L41.3522 19.3197H43.5013C43.7542 18.325 43.8257 17.2846 43.7373 16.3339Z"
            fill="#31B9E4" />
        <path
            d="M48.7836 16.3339C48.7652 17.5134 48.6374 18.3956 48.4312 19.3197H49.2503C49.2503 19.5979 49.252 20.2962 49.252 20.5375C49.252 21.0287 49.6502 21.4268 50.1412 21.4268H52.7258V18.7639V16.3339H48.7836Z"
            fill="#31B9E4" />
        <path
            d="M18.2242 41.4357L18.1333 40.6713C16.7528 40.813 15.2924 40.7001 13.9521 40.3035L14.0833 41.4057L10.6098 50.1899C10.1926 51.245 10.7097 52.4383 11.7647 52.8555C12.8199 53.2728 14.0132 52.7554 14.4303 51.7006L18.0947 42.4337C18.22 42.1169 18.2645 41.7739 18.2242 41.4357Z"
            fill="#31B9E4" />
        <path
            d="M23.7598 40.4773L23.5071 38.4613C22.3359 39.3994 21.0318 40.0528 19.6111 40.4111L19.6415 40.6538L17.6329 50.5362C17.4069 51.6479 18.1249 52.7324 19.2368 52.9584C20.348 53.1843 21.4329 52.4666 21.6589 51.3544L23.7346 41.1418C23.779 40.9232 23.7875 40.6987 23.7598 40.4773Z"
            fill="#31B9E4" />
        <path
            d="M34.3952 27.7085C34.2326 27.1572 33.6535 26.8424 33.1023 27.0049L29.3911 28.1003C29.7415 28.6954 29.9225 29.3975 29.8776 30.127L30.3755 29.9801L30.0812 31.1124C29.9366 31.6687 30.2703 32.237 30.8267 32.3815C31.3826 32.5261 31.9511 32.1927 32.0958 31.636L32.7049 29.2926L33.6913 29.0015C34.2428 28.8386 34.5579 28.2598 34.3952 27.7085Z"
            fill="#31B9E4" />
        <path
            d="M18.0092 17.6086C20.0258 17.6086 21.6605 15.9054 21.6605 13.8043C21.6605 11.7033 20.0258 10 18.0092 10C15.9927 10 14.3579 11.7033 14.3579 13.8043C14.3579 15.9054 15.9927 17.6086 18.0092 17.6086Z"
            fill="#31B9E4" />
        <path
            d="M23.2164 32.9309C23.0632 33.1964 22.893 33.4667 22.7042 33.7348C21.1526 35.939 19.1065 36.9966 16.6211 36.8788C14.271 36.7671 12.9095 35.6323 12.1217 34.3008C12.0559 34.1896 11.948 34.1096 11.8224 34.0791C11.6969 34.0486 11.5641 34.0698 11.4546 34.1384L10.4993 34.7369C10.2795 34.8746 10.2093 35.1616 10.3404 35.3853C11.5787 37.4986 13.629 38.8205 16.5223 38.958C19.7592 39.1113 22.4932 37.6854 24.4475 34.8741C24.8208 34.3371 25.1308 33.7983 25.3862 33.2931L23.2164 32.9309Z"
            fill="#31B9E4" />
        <path
            d="M26.7218 28.0945L20.7044 27.0902L17.9869 20.8783L21.6265 25.5404L22.6559 25.7121V21.3177C22.6559 19.8983 21.5517 18.7477 20.1895 18.7477H15.7908C14.4285 18.7477 13.3447 19.8983 13.3447 21.3177V32.8124C13.9642 34.328 15.0004 35.04 16.7045 35.121C18.677 35.2148 20.2225 34.2439 21.3439 32.6187C18.7259 32.1818 18.8765 32.2095 18.7309 32.1758C17.2444 31.8323 16.3838 30.577 16.2396 29.8248L14.8454 22.5491L17.89 29.5086C18.0882 29.9617 18.4531 30.3083 18.8969 30.4746C19.1182 30.5575 18.5925 30.4559 26.1644 31.7196C27.1254 31.8802 28.0288 31.1979 28.1826 30.1975C28.3355 29.2025 27.6879 28.2557 26.7218 28.0945Z"
            fill="#31B9E4" />
        <path
            d="M47.056 14.2718C46.9071 13.7038 46.3445 13.3689 45.7992 13.5241C45.2734 13.6738 44.9271 14.2411 45.0838 14.8416C45.3942 16.0251 45.4466 17.8001 45.1244 19.2871C44.8583 20.3699 44.7176 20.8695 44.0354 22.0435C43.6638 22.7067 42.8073 23.6551 42.5757 23.8501C40.7917 25.529 38.7154 26.3175 36.4691 26.9468C36.3097 26.9913 36.2386 27.1339 36.2615 27.2685C36.2872 27.4192 36.4253 27.521 36.5715 27.4941C38.9773 27.0486 41.2123 26.4266 43.3115 24.7698C43.5842 24.5756 44.6296 23.6149 45.1493 22.8574C45.6966 22.0827 46.1672 21.3368 46.6991 19.7338C47.3851 17.4919 47.2585 15.0476 47.056 14.2718Z"
            fill="#31B9E4" />
        <path
            d="M38.8753 20.821C38.7032 20.2518 38.1207 19.9357 37.5742 20.1151C37.0558 20.2852 36.7083 20.864 36.9091 21.511C36.9587 21.5683 37.0063 21.8882 37.012 21.9661C37.0859 22.4712 36.9565 22.9715 36.7613 23.4002C36.4169 24.1089 35.9609 24.4525 35.4529 24.8328C35.3665 24.8979 35.3248 25.015 35.3571 25.1273C35.3978 25.2693 35.5412 25.3499 35.6776 25.3074C36.2235 25.1369 36.7351 25.0065 37.531 24.3524C37.6244 24.2607 38.018 23.8875 38.2179 23.55C38.8574 22.5363 39.0236 21.3116 38.8753 20.821Z"
            fill="#31B9E4" />
        <path
            d="M44.0286 32.1969C43.7477 31.1197 42.9444 30.213 42.0538 29.7165C41.1169 29.2279 40.4035 29.2385 39.7889 29.2389C39.6823 29.2392 39.5823 29.3087 39.5455 29.4196C39.4989 29.5598 39.5703 29.7126 39.7047 29.761L39.7336 29.7714C40.2667 29.9635 40.8107 30.1472 41.3528 30.7411C41.8068 31.2649 42.042 31.846 42.0249 32.4837C42.0236 32.4914 42.0202 32.4965 42.0157 32.5062C41.9979 33.3239 42.7207 33.8132 43.3743 33.5906C43.8719 33.4212 44.2312 32.8614 44.0286 32.1969Z"
            fill="#31B9E4" />
    </g>
    <defs>
        <clipPath id="clip0_311_1729">
            <rect fill="white" height="43" transform="translate(10 10)" width="43" />
        </clipPath>
    </defs>
</svg>
