<svg fill="none" height="46" viewBox="0 0 46 46" width="46" xmlns="http://www.w3.org/2000/svg">
    <g clip-path="url(#clip0_251_4101)">
        <path
            d="M8.23438 38.8125H12.4531C12.842 38.8125 13.1562 38.4912 13.1562 38.0938V34.5C13.1562 34.1025 12.842 33.7812 12.4531 33.7812H8.23438C7.84555 33.7812 7.53125 34.1025 7.53125 34.5V38.0938C7.53125 38.4912 7.84555 38.8125 8.23438 38.8125ZM8.9375 35.2188H11.75V37.375H8.9375V35.2188Z"
            fill="#31B9E4" />
        <path
            d="M16.6719 38.8125H20.8906C21.2795 38.8125 21.5938 38.4912 21.5938 38.0938V34.5C21.5938 34.1025 21.2795 33.7812 20.8906 33.7812H16.6719C16.283 33.7812 15.9688 34.1025 15.9688 34.5V38.0938C15.9688 38.4912 16.283 38.8125 16.6719 38.8125ZM17.375 35.2188H20.1875V37.375H17.375V35.2188Z"
            fill="#31B9E4" />
        <path
            d="M25.1094 38.8125H29.3281C29.717 38.8125 30.0312 38.4912 30.0312 38.0938V34.5C30.0312 34.1025 29.717 33.7812 29.3281 33.7812H25.1094C24.7205 33.7812 24.4062 34.1025 24.4062 34.5V38.0938C24.4062 38.4912 24.7205 38.8125 25.1094 38.8125ZM25.8125 35.2188H28.625V37.375H25.8125V35.2188Z"
            fill="#31B9E4" />
        <path
            d="M8.23438 30.9062H12.4531C12.842 30.9062 13.1562 30.585 13.1562 30.1875V26.5938C13.1562 26.1963 12.842 25.875 12.4531 25.875H8.23438C7.84555 25.875 7.53125 26.1963 7.53125 26.5938V30.1875C7.53125 30.585 7.84555 30.9062 8.23438 30.9062ZM8.9375 27.3125H11.75V29.4688H8.9375V27.3125Z"
            fill="#31B9E4" />
        <path
            d="M16.6719 30.9062H20.8906C21.2795 30.9062 21.5938 30.585 21.5938 30.1875V26.5938C21.5938 26.1963 21.2795 25.875 20.8906 25.875H16.6719C16.283 25.875 15.9688 26.1963 15.9688 26.5938V30.1875C15.9688 30.585 16.283 30.9062 16.6719 30.9062ZM17.375 27.3125H20.1875V29.4688H17.375V27.3125Z"
            fill="#31B9E4" />
        <path
            d="M25.1094 30.9062H29.3281C29.717 30.9062 30.0312 30.585 30.0312 30.1875V26.5938C30.0312 26.1963 29.717 25.875 29.3281 25.875H25.1094C24.7205 25.875 24.4062 26.1963 24.4062 26.5938V30.1875C24.4062 30.585 24.7205 30.9062 25.1094 30.9062ZM25.8125 27.3125H28.625V29.4688H25.8125V27.3125Z"
            fill="#31B9E4" />
        <path
            d="M33.5469 30.9062H37.7656C38.1545 30.9062 38.4688 30.585 38.4688 30.1875V26.5938C38.4688 26.1963 38.1545 25.875 37.7656 25.875H33.5469C33.158 25.875 32.8438 26.1963 32.8438 26.5938V30.1875C32.8438 30.585 33.158 30.9062 33.5469 30.9062ZM34.25 27.3125H37.0625V29.4688H34.25V27.3125Z"
            fill="#31B9E4" />
        <path
            d="M8.23438 23H12.4531C12.842 23 13.1562 22.6787 13.1562 22.2812V18.6875C13.1562 18.29 12.842 17.9688 12.4531 17.9688H8.23438C7.84555 17.9688 7.53125 18.29 7.53125 18.6875V22.2812C7.53125 22.6787 7.84555 23 8.23438 23ZM8.9375 19.4062H11.75V21.5625H8.9375V19.4062Z"
            fill="#31B9E4" />
        <path
            d="M16.6719 23H20.8906C21.2795 23 21.5938 22.6787 21.5938 22.2812V18.6875C21.5938 18.29 21.2795 17.9688 20.8906 17.9688H16.6719C16.283 17.9688 15.9688 18.29 15.9688 18.6875V22.2812C15.9688 22.6787 16.283 23 16.6719 23ZM17.375 19.4062H20.1875V21.5625H17.375V19.4062Z"
            fill="#31B9E4" />
        <path
            d="M25.1094 23H29.3281C29.717 23 30.0312 22.6787 30.0312 22.2812V18.6875C30.0312 18.29 29.717 17.9688 29.3281 17.9688H25.1094C24.7205 17.9688 24.4062 18.29 24.4062 18.6875V22.2812C24.4062 22.6787 24.7205 23 25.1094 23ZM25.8125 19.4062H28.625V21.5625H25.8125V19.4062Z"
            fill="#31B9E4" />
        <path
            d="M33.5469 23H37.7656C38.1545 23 38.4688 22.6787 38.4688 22.2812V18.6875C38.4688 18.29 38.1545 17.9688 37.7656 17.9688H33.5469C33.158 17.9688 32.8438 18.29 32.8438 18.6875V22.2812C32.8438 22.6787 33.158 23 33.5469 23ZM34.25 19.4062H37.0625V21.5625H34.25V19.4062Z"
            fill="#31B9E4" />
        <path
            d="M42.6875 2.875H37.7656V2.15625C37.7656 0.965281 36.8213 0 35.6562 0C34.4912 0 33.5469 0.965281 33.5469 2.15625V2.875H12.4531V2.15625C12.4531 0.965281 11.5088 0 10.3438 0C9.17867 0 8.23438 0.965281 8.23438 2.15625V2.875H3.3125C1.75789 2.875 0.5 4.16084 0.5 5.75V43.125C0.5 44.7142 1.75789 46 3.3125 46H42.6875C44.2421 46 45.5 44.7142 45.5 43.125V5.75C45.5 4.16084 44.2421 2.875 42.6875 2.875ZM34.9531 2.15625C34.9531 1.75878 35.2674 1.4375 35.6562 1.4375C36.0451 1.4375 36.3594 1.75878 36.3594 2.15625V4.3125V7.1875C36.3594 7.58497 36.0451 7.90625 35.6562 7.90625C35.2674 7.90625 34.9531 7.58497 34.9531 7.1875V4.3125V2.15625ZM9.64062 2.15625C9.64062 1.75878 9.95492 1.4375 10.3438 1.4375C10.7326 1.4375 11.0469 1.75878 11.0469 2.15625V4.3125V7.1875C11.0469 7.58497 10.7326 7.90625 10.3438 7.90625C9.95492 7.90625 9.64062 7.58497 9.64062 7.1875V4.3125V2.15625ZM44.0938 43.125C44.0938 43.9185 43.4637 44.5625 42.6875 44.5625H3.3125C2.53625 44.5625 1.90625 43.9185 1.90625 43.125V12.2188H44.0938V43.125ZM44.0938 10.7812H1.90625V5.75C1.90625 4.9565 2.53625 4.3125 3.3125 4.3125H8.23438V7.1875C8.23438 8.37847 9.17867 9.34375 10.3438 9.34375C11.5088 9.34375 12.4531 8.37847 12.4531 7.1875V4.3125H33.5469V7.1875C33.5469 8.37847 34.4912 9.34375 35.6562 9.34375C36.8213 9.34375 37.7656 8.37847 37.7656 7.1875V4.3125H42.6875C43.4637 4.3125 44.0938 4.9565 44.0938 5.75V10.7812Z"
            fill="#31B9E4" />
    </g>
    <defs>
        <clipPath id="clip0_251_4101">
            <rect fill="white" height="46" transform="translate(0.5)" width="45" />
        </clipPath>
    </defs>
</svg>
