<svg fill="none" height="46" viewBox="0 0 45 46" width="45" xmlns="http://www.w3.org/2000/svg">
    <path
        d="M29.6237 5.75C32.4186 5.75 34.8551 7.69337 35.5346 10.4645L36.2569 13.4167H37.9687C38.6807 13.4167 39.2691 13.9575 39.3622 14.6591L39.375 14.8542C39.375 15.5819 38.8459 16.1834 38.1596 16.2785L37.9687 16.2917H36.9637L37.3538 17.8758C38.5703 18.6325 39.3827 20.0004 39.3827 21.5625V37.848C39.3827 39.7005 37.9136 41.2022 36.1014 41.2022H33.2812C31.4691 41.2022 30 39.7005 30 37.848L29.9981 35.4583H15.0075L15.0076 37.848C15.0076 39.7005 13.5386 41.2022 11.7264 41.2022H8.90625C7.09406 41.2022 5.625 39.7005 5.625 37.848V21.5625C5.625 20.0008 6.43717 18.6328 7.65332 17.8761L8.04187 16.2917H7.03125C6.31931 16.2917 5.73096 15.7509 5.63784 15.0492L5.625 14.8542C5.625 14.1264 6.15403 13.525 6.84043 13.4298L7.03125 13.4167H8.74312L9.46684 10.4684C10.145 7.69536 12.5824 5.75 15.3786 5.75H29.6237ZM12.195 35.4583H8.43563L8.4375 37.848C8.4375 38.1125 8.64737 38.3272 8.90625 38.3272H11.7264C11.9853 38.3272 12.1951 38.1125 12.1951 37.848L12.195 35.4583ZM36.57 35.4583H32.8106L32.8125 37.848C32.8125 38.1125 33.0223 38.3272 33.2812 38.3272H36.1014C36.3604 38.3272 36.5702 38.1125 36.5702 37.848L36.57 35.4583ZM35.1639 20.125H9.84375C9.06711 20.125 8.4375 20.7686 8.4375 21.5625V32.5833H36.5702V21.5625C36.5702 20.7686 35.9406 20.125 35.1639 20.125ZM19.2169 26.8333H25.7826C26.5594 26.8333 27.1888 27.4769 27.1888 28.2708C27.1888 28.9986 26.6599 29.6 25.9734 29.6953L25.7826 29.7083H19.2169C18.4402 29.7083 17.8106 29.0647 17.8106 28.2708C17.8106 27.5431 18.3397 26.9416 19.026 26.8464L19.2169 26.8333ZM31.875 23C32.9104 23 33.7498 23.8581 33.7498 24.9167C33.7498 25.975 32.9104 26.8331 31.875 26.8331C30.8394 26.8331 30 25.975 30 24.9167C30 23.8581 30.8394 23 31.875 23ZM13.1249 23C14.1605 23 14.9999 23.8581 14.9999 24.9167C14.9999 25.975 14.1605 26.8331 13.1249 26.8331C12.0894 26.8331 11.25 25.975 11.25 24.9167C11.25 23.8581 12.0894 23 13.1249 23ZM29.6237 8.625H15.3786C13.873 8.625 12.5605 9.6725 12.1954 11.1657L10.7073 17.25H34.2992L32.8065 11.1636C32.4407 9.67142 31.1286 8.625 29.6237 8.625Z"
        fill="#31B9E4" />
</svg>
