<svg fill="none" height="54" viewBox="0 0 304 54" width="304" xmlns="http://www.w3.org/2000/svg">
    <path
        d="M48.9653 34.5C49.5853 34.82 50.3753 35.14 51.3353 35.46C52.2953 35.78 53.2053 35.94 54.0653 35.94C55.2853 35.94 56.1953 35.75 56.7953 35.37C57.4153 34.99 57.7253 34.44 57.7253 33.72C57.7253 33.04 57.3153 32.44 56.4953 31.92C55.6953 31.38 54.8053 30.86 53.8253 30.36C52.3853 29.62 51.0053 28.75 49.6853 27.75C48.3653 26.75 47.7153 25.36 47.7353 23.58C47.7553 22.04 48.3653 20.75 49.5653 19.71C50.7853 18.65 52.5153 18.12 54.7553 18.12C55.7753 18.12 56.7953 18.28 57.8153 18.6C58.8353 18.92 59.7353 19.27 60.5153 19.65L59.2253 22.77C58.6053 22.47 57.9353 22.19 57.2153 21.93C56.4953 21.65 55.6953 21.51 54.8153 21.51C53.9553 21.51 53.2253 21.68 52.6253 22.02C52.0453 22.36 51.7553 22.88 51.7553 23.58C51.7553 24.34 52.1353 24.97 52.8953 25.47C53.6553 25.97 54.5553 26.5 55.5953 27.06C57.0553 27.8 58.4453 28.67 59.7653 29.67C61.1053 30.67 61.7653 32.04 61.7453 33.78C61.7253 35.4 61.0653 36.74 59.7653 37.8C58.4653 38.86 56.5853 39.39 54.1253 39.39C53.2653 39.39 52.1553 39.2 50.7953 38.82C49.4553 38.44 48.5553 38.05 48.0953 37.65L48.9653 34.5ZM72.388 39.36C69.868 39.36 67.878 38.67 66.418 37.29C64.978 35.91 64.258 34.06 64.258 31.74C64.258 29.42 64.908 27.56 66.208 26.16C67.528 24.76 69.318 24.06 71.578 24.06C73.858 24.06 75.528 24.82 76.588 26.34C77.668 27.84 78.208 29.62 78.208 31.68V32.88H68.398C68.578 33.84 69.018 34.61 69.718 35.19C70.418 35.75 71.338 36.03 72.478 36.03C73.138 36.03 73.728 35.95 74.248 35.79C74.788 35.61 75.408 35.36 76.108 35.04L77.248 37.86C76.568 38.38 75.738 38.76 74.758 39C73.798 39.24 73.008 39.36 72.388 39.36ZM74.518 30.27C74.318 29.29 73.958 28.57 73.438 28.11C72.918 27.63 72.268 27.39 71.488 27.39C70.688 27.39 70.018 27.64 69.478 28.14C68.938 28.62 68.588 29.33 68.428 30.27H74.518ZM85.2857 17.82V39H81.4157V18.15L85.2857 17.82ZM96.7045 39.36C94.1845 39.36 92.1945 38.67 90.7345 37.29C89.2945 35.91 88.5745 34.06 88.5745 31.74C88.5745 29.42 89.2245 27.56 90.5245 26.16C91.8445 24.76 93.6345 24.06 95.8945 24.06C98.1745 24.06 99.8445 24.82 100.904 26.34C101.984 27.84 102.524 29.62 102.524 31.68V32.88H92.7145C92.8945 33.84 93.3345 34.61 94.0345 35.19C94.7345 35.75 95.6545 36.03 96.7945 36.03C97.4545 36.03 98.0445 35.95 98.5645 35.79C99.1045 35.61 99.7245 35.36 100.424 35.04L101.564 37.86C100.884 38.38 100.054 38.76 99.0745 39C98.1145 39.24 97.3245 39.36 96.7045 39.36ZM98.8345 30.27C98.6345 29.29 98.2745 28.57 97.7545 28.11C97.2345 27.63 96.5845 27.39 95.8045 27.39C95.0045 27.39 94.3345 27.64 93.7945 28.14C93.2545 28.62 92.9045 29.33 92.7445 30.27H98.8345ZM112.452 27.39C111.352 27.39 110.492 27.81 109.872 28.65C109.252 29.47 108.942 30.5 108.942 31.74C108.942 33 109.252 34.03 109.872 34.83C110.492 35.63 111.352 36.03 112.452 36.03C113.132 36.03 113.742 35.95 114.282 35.79C114.842 35.61 115.472 35.36 116.172 35.04L117.282 37.86C116.602 38.38 115.772 38.76 114.792 39C113.832 39.24 113.042 39.36 112.422 39.36C110.062 39.36 108.222 38.67 106.902 37.29C105.582 35.91 104.922 34.06 104.922 31.74C104.922 29.42 105.582 27.56 106.902 26.16C108.222 24.76 110.062 24.06 112.422 24.06C113.042 24.06 113.822 24.19 114.762 24.45C115.722 24.71 116.562 25.09 117.282 25.59L116.172 28.38C115.472 28.06 114.842 27.82 114.282 27.66C113.742 27.48 113.132 27.39 112.452 27.39ZM129.112 38.7C128.792 38.96 128.332 39.17 127.732 39.33C127.152 39.51 126.632 39.6 126.172 39.6C124.372 39.6 122.952 39.15 121.912 38.25C120.892 37.33 120.382 36.03 120.382 34.35V27.48H118.432V24.48H120.382V21.03L124.252 20.34V24.48H126.892L128.092 27.48H124.252V33.66C124.252 34.42 124.432 35.05 124.792 35.55C125.152 36.03 125.682 36.27 126.382 36.27C126.642 36.27 126.902 36.24 127.162 36.18C127.422 36.12 127.692 36.02 127.972 35.88L129.112 38.7ZM146.464 39.03V39H139.024V18.6H146.464C149.644 18.58 152.004 19.53 153.544 21.45C155.084 23.35 155.854 25.76 155.854 28.68C155.854 31.84 155.034 34.34 153.394 36.18C151.754 38.02 149.444 38.97 146.464 39.03ZM146.614 21.9H142.894V35.73H146.404C148.044 35.73 149.354 35.19 150.334 34.11C151.334 33.03 151.834 31.22 151.834 28.68C151.834 26.56 151.414 24.9 150.574 23.7C149.734 22.5 148.414 21.9 146.614 21.9ZM162.368 34.65C162.368 35.07 162.538 35.45 162.878 35.79C163.218 36.11 163.668 36.27 164.228 36.27C164.768 36.27 165.308 36.15 165.848 35.91C166.408 35.67 166.938 35.31 167.438 34.83V32.61H164.498C163.818 32.61 163.288 32.82 162.908 33.24C162.548 33.66 162.368 34.13 162.368 34.65ZM164.288 39.36C162.508 39.36 161.188 38.93 160.328 38.07C159.468 37.19 159.038 36.05 159.038 34.65C159.038 33.15 159.548 32 160.568 31.2C161.588 30.4 162.918 30 164.558 30H167.408C167.388 29.26 167.168 28.69 166.748 28.29C166.348 27.87 165.788 27.66 165.068 27.66C164.388 27.66 163.648 27.76 162.848 27.96C162.048 28.14 161.378 28.36 160.838 28.62L159.788 25.38C160.348 25 161.198 24.69 162.338 24.45C163.498 24.19 164.388 24.06 165.008 24.06C166.748 24.06 168.238 24.57 169.478 25.59C170.718 26.59 171.338 27.87 171.338 29.43V39H169.328L168.368 37.77C167.828 38.19 167.188 38.56 166.448 38.88C165.728 39.2 165.008 39.36 164.288 39.36ZM183.926 38.7C183.606 38.96 183.146 39.17 182.546 39.33C181.966 39.51 181.446 39.6 180.986 39.6C179.186 39.6 177.766 39.15 176.726 38.25C175.706 37.33 175.196 36.03 175.196 34.35V27.48H173.246V24.48H175.196V21.03L179.066 20.34V24.48H181.706L182.906 27.48H179.066V33.66C179.066 34.42 179.246 35.05 179.606 35.55C179.966 36.03 180.496 36.27 181.196 36.27C181.456 36.27 181.716 36.24 181.976 36.18C182.236 36.12 182.506 36.02 182.786 35.88L183.926 38.7ZM193.619 39.36C191.099 39.36 189.109 38.67 187.649 37.29C186.209 35.91 185.489 34.06 185.489 31.74C185.489 29.42 186.139 27.56 187.439 26.16C188.759 24.76 190.549 24.06 192.809 24.06C195.089 24.06 196.759 24.82 197.819 26.34C198.899 27.84 199.439 29.62 199.439 31.68V32.88H189.629C189.809 33.84 190.249 34.61 190.949 35.19C191.649 35.75 192.569 36.03 193.709 36.03C194.369 36.03 194.959 35.95 195.479 35.79C196.019 35.61 196.639 35.36 197.339 35.04L198.479 37.86C197.799 38.38 196.969 38.76 195.989 39C195.029 39.24 194.239 39.36 193.619 39.36ZM195.749 30.27C195.549 29.29 195.189 28.57 194.669 28.11C194.149 27.63 193.499 27.39 192.719 27.39C191.919 27.39 191.249 27.64 190.709 28.14C190.169 28.62 189.819 29.33 189.659 30.27H195.749ZM221.556 22.77C220.936 22.47 220.286 22.19 219.606 21.93C218.946 21.65 218.186 21.51 217.326 21.51C216.586 21.51 216.006 21.73 215.586 22.17C215.186 22.59 214.986 23.1 214.986 23.7C214.986 24.28 215.186 24.86 215.586 25.44C215.986 26.02 216.606 26.68 217.446 27.42L222.246 31.77C222.486 31.17 222.676 30.51 222.816 29.79C222.976 29.05 223.076 28.26 223.116 27.42L226.626 28.83C226.566 29.87 226.416 30.87 226.176 31.83C225.936 32.77 225.626 33.65 225.246 34.47L227.616 36.54L225.276 39.45L222.996 37.35C222.256 37.97 221.376 38.46 220.356 38.82C219.336 39.16 218.186 39.33 216.906 39.33C214.706 39.31 212.826 38.72 211.266 37.56C209.706 36.4 208.926 34.68 208.926 32.4C208.926 31.32 209.196 30.28 209.736 29.28C210.276 28.26 210.966 27.38 211.806 26.64C211.546 26.26 211.336 25.84 211.176 25.38C211.036 24.9 210.966 24.39 210.966 23.85C210.966 22.31 211.536 20.97 212.676 19.83C213.836 18.69 215.376 18.12 217.296 18.12C218.276 18.12 219.246 18.28 220.206 18.6C221.186 18.92 222.076 19.27 222.876 19.65L221.556 22.77ZM213.036 32.37C213.036 33.59 213.426 34.47 214.206 35.01C215.006 35.55 215.906 35.82 216.906 35.82C217.546 35.82 218.146 35.73 218.706 35.55C219.266 35.37 219.766 35.12 220.206 34.8L214.896 29.94L214.266 29.37C213.886 29.81 213.586 30.28 213.366 30.78C213.166 31.28 213.056 31.81 213.036 32.37ZM235.473 18.6H251.973L252.603 21.66H245.613V39H241.683V21.66H235.473V18.6ZM256.564 18C257.184 18 257.704 18.21 258.124 18.63C258.564 19.05 258.784 19.57 258.784 20.19C258.784 20.81 258.564 21.33 258.124 21.75C257.704 22.17 257.184 22.38 256.564 22.38C255.964 22.38 255.454 22.17 255.034 21.75C254.614 21.33 254.404 20.81 254.404 20.19C254.404 19.57 254.614 19.05 255.034 18.63C255.454 18.21 255.964 18 256.564 18ZM258.514 24.45V39H254.614V24.45H258.514ZM274.8 26.16C275.42 25.46 276.24 24.91 277.26 24.51C278.3 24.09 279.23 23.88 280.05 23.88C282.03 23.88 283.43 24.46 284.25 25.62C285.09 26.78 285.51 28.2 285.51 29.88V39H281.58V30.06C281.58 29.14 281.36 28.44 280.92 27.96C280.48 27.46 279.84 27.21 279 27.21C278.44 27.21 277.85 27.36 277.23 27.66C276.61 27.96 276.05 28.3 275.55 28.68C275.57 28.88 275.59 29.08 275.61 29.28C275.63 29.48 275.64 29.68 275.64 29.88V39H271.71V30.06C271.71 29.14 271.49 28.44 271.05 27.96C270.61 27.46 269.98 27.21 269.16 27.21C268.66 27.21 268.15 27.32 267.63 27.54C267.13 27.74 266.65 28 266.19 28.32V39H262.29V24.45H264.33L265.29 25.77C265.95 25.17 266.74 24.71 267.66 24.39C268.6 24.05 269.44 23.88 270.18 23.88C271.32 23.88 272.27 24.09 273.03 24.51C273.79 24.91 274.38 25.46 274.8 26.16ZM296.597 39.36C294.077 39.36 292.087 38.67 290.627 37.29C289.187 35.91 288.467 34.06 288.467 31.74C288.467 29.42 289.117 27.56 290.417 26.16C291.737 24.76 293.527 24.06 295.787 24.06C298.067 24.06 299.737 24.82 300.797 26.34C301.877 27.84 302.417 29.62 302.417 31.68V32.88H292.607C292.787 33.84 293.227 34.61 293.927 35.19C294.627 35.75 295.547 36.03 296.687 36.03C297.347 36.03 297.937 35.95 298.457 35.79C298.997 35.61 299.617 35.36 300.317 35.04L301.457 37.86C300.777 38.38 299.947 38.76 298.967 39C298.007 39.24 297.217 39.36 296.597 39.36ZM298.727 30.27C298.527 29.29 298.167 28.57 297.647 28.11C297.127 27.63 296.477 27.39 295.697 27.39C294.897 27.39 294.227 27.64 293.687 28.14C293.147 28.62 292.797 29.33 292.637 30.27H298.727Z"
        fill="#1F1F29" />
    <g clip-path="url(#clip0_251_4030)">
        <path
            d="M6.1875 39.375H9.5625C9.87356 39.375 10.125 39.1236 10.125 38.8125V36C10.125 35.6889 9.87356 35.4375 9.5625 35.4375H6.1875C5.87644 35.4375 5.625 35.6889 5.625 36V38.8125C5.625 39.1236 5.87644 39.375 6.1875 39.375ZM6.75 36.5625H9V38.25H6.75V36.5625Z"
            fill="#231F20" />
        <path
            d="M12.9375 39.375H16.3125C16.6236 39.375 16.875 39.1236 16.875 38.8125V36C16.875 35.6889 16.6236 35.4375 16.3125 35.4375H12.9375C12.6264 35.4375 12.375 35.6889 12.375 36V38.8125C12.375 39.1236 12.6264 39.375 12.9375 39.375ZM13.5 36.5625H15.75V38.25H13.5V36.5625Z"
            fill="#231F20" />
        <path
            d="M19.6875 39.375H23.0625C23.3736 39.375 23.625 39.1236 23.625 38.8125V36C23.625 35.6889 23.3736 35.4375 23.0625 35.4375H19.6875C19.3764 35.4375 19.125 35.6889 19.125 36V38.8125C19.125 39.1236 19.3764 39.375 19.6875 39.375ZM20.25 36.5625H22.5V38.25H20.25V36.5625Z"
            fill="#231F20" />
        <path
            d="M6.1875 33.1875H9.5625C9.87356 33.1875 10.125 32.9361 10.125 32.625V29.8125C10.125 29.5014 9.87356 29.25 9.5625 29.25H6.1875C5.87644 29.25 5.625 29.5014 5.625 29.8125V32.625C5.625 32.9361 5.87644 33.1875 6.1875 33.1875ZM6.75 30.375H9V32.0625H6.75V30.375Z"
            fill="#231F20" />
        <path
            d="M12.9375 33.1875H16.3125C16.6236 33.1875 16.875 32.9361 16.875 32.625V29.8125C16.875 29.5014 16.6236 29.25 16.3125 29.25H12.9375C12.6264 29.25 12.375 29.5014 12.375 29.8125V32.625C12.375 32.9361 12.6264 33.1875 12.9375 33.1875ZM13.5 30.375H15.75V32.0625H13.5V30.375Z"
            fill="#231F20" />
        <path
            d="M19.6875 33.1875H23.0625C23.3736 33.1875 23.625 32.9361 23.625 32.625V29.8125C23.625 29.5014 23.3736 29.25 23.0625 29.25H19.6875C19.3764 29.25 19.125 29.5014 19.125 29.8125V32.625C19.125 32.9361 19.3764 33.1875 19.6875 33.1875ZM20.25 30.375H22.5V32.0625H20.25V30.375Z"
            fill="#231F20" />
        <path
            d="M26.4375 33.1875H29.8125C30.1236 33.1875 30.375 32.9361 30.375 32.625V29.8125C30.375 29.5014 30.1236 29.25 29.8125 29.25H26.4375C26.1264 29.25 25.875 29.5014 25.875 29.8125V32.625C25.875 32.9361 26.1264 33.1875 26.4375 33.1875ZM27 30.375H29.25V32.0625H27V30.375Z"
            fill="#231F20" />
        <path
            d="M6.1875 27H9.5625C9.87356 27 10.125 26.7486 10.125 26.4375V23.625C10.125 23.3139 9.87356 23.0625 9.5625 23.0625H6.1875C5.87644 23.0625 5.625 23.3139 5.625 23.625V26.4375C5.625 26.7486 5.87644 27 6.1875 27ZM6.75 24.1875H9V25.875H6.75V24.1875Z"
            fill="#231F20" />
        <path
            d="M12.9375 27H16.3125C16.6236 27 16.875 26.7486 16.875 26.4375V23.625C16.875 23.3139 16.6236 23.0625 16.3125 23.0625H12.9375C12.6264 23.0625 12.375 23.3139 12.375 23.625V26.4375C12.375 26.7486 12.6264 27 12.9375 27ZM13.5 24.1875H15.75V25.875H13.5V24.1875Z"
            fill="#231F20" />
        <path
            d="M19.6875 27H23.0625C23.3736 27 23.625 26.7486 23.625 26.4375V23.625C23.625 23.3139 23.3736 23.0625 23.0625 23.0625H19.6875C19.3764 23.0625 19.125 23.3139 19.125 23.625V26.4375C19.125 26.7486 19.3764 27 19.6875 27ZM20.25 24.1875H22.5V25.875H20.25V24.1875Z"
            fill="#231F20" />
        <path
            d="M26.4375 27H29.8125C30.1236 27 30.375 26.7486 30.375 26.4375V23.625C30.375 23.3139 30.1236 23.0625 29.8125 23.0625H26.4375C26.1264 23.0625 25.875 23.3139 25.875 23.625V26.4375C25.875 26.7486 26.1264 27 26.4375 27ZM27 24.1875H29.25V25.875H27V24.1875Z"
            fill="#231F20" />
        <path
            d="M33.75 11.25H29.8125V10.6875C29.8125 9.75544 29.0571 9 28.125 9C27.1929 9 26.4375 9.75544 26.4375 10.6875V11.25H9.5625V10.6875C9.5625 9.75544 8.80706 9 7.875 9C6.94294 9 6.1875 9.75544 6.1875 10.6875V11.25H2.25C1.00631 11.25 0 12.2563 0 13.5V42.75C0 43.9937 1.00631 45 2.25 45H33.75C34.9937 45 36 43.9937 36 42.75V13.5C36 12.2563 34.9937 11.25 33.75 11.25ZM27.5625 10.6875C27.5625 10.3764 27.8139 10.125 28.125 10.125C28.4361 10.125 28.6875 10.3764 28.6875 10.6875V12.375V14.625C28.6875 14.9361 28.4361 15.1875 28.125 15.1875C27.8139 15.1875 27.5625 14.9361 27.5625 14.625V12.375V10.6875ZM7.3125 10.6875C7.3125 10.3764 7.56394 10.125 7.875 10.125C8.18606 10.125 8.4375 10.3764 8.4375 10.6875V12.375V14.625C8.4375 14.9361 8.18606 15.1875 7.875 15.1875C7.56394 15.1875 7.3125 14.9361 7.3125 14.625V12.375V10.6875ZM34.875 42.75C34.875 43.371 34.371 43.875 33.75 43.875H2.25C1.629 43.875 1.125 43.371 1.125 42.75V18.5625H34.875V42.75ZM34.875 17.4375H1.125V13.5C1.125 12.879 1.629 12.375 2.25 12.375H6.1875V14.625C6.1875 15.5571 6.94294 16.3125 7.875 16.3125C8.80706 16.3125 9.5625 15.5571 9.5625 14.625V12.375H26.4375V14.625C26.4375 15.5571 27.1929 16.3125 28.125 16.3125C29.0571 16.3125 29.8125 15.5571 29.8125 14.625V12.375H33.75C34.371 12.375 34.875 12.879 34.875 13.5V17.4375Z"
            fill="#231F20" />
    </g>
    <defs>
        <clipPath id="clip0_251_4030">
            <rect fill="white" height="36" transform="translate(0 9)" width="36" />
        </clipPath>
    </defs>
</svg>
