<svg fill="none" height="25" viewBox="0 0 22 25" width="22" xmlns="http://www.w3.org/2000/svg">
    <path
        d="M7.92531 21.1178L1 23.2768L2.93909 15.5661L15.6201 1.51555C15.7634 1.35234 15.9346 1.22267 16.1236 1.13414C16.3125 1.0456 16.5155 1 16.7205 1C16.9255 1 17.1284 1.0456 17.3174 1.13414C17.5063 1.22267 17.6775 1.35234 17.8208 1.51555L20.5448 4.56555C20.689 4.72484 20.8035 4.91435 20.8816 5.12315C20.9598 5.33196 21 5.55592 21 5.78212C21 6.00832 20.9598 6.23228 20.8816 6.44108C20.8035 6.64989 20.689 6.8394 20.5448 6.99869L7.92531 21.1178Z"
        stroke="#31B9E4" stroke-linecap="round" stroke-linejoin="round" stroke-width="2" />
</svg>
