<svg fill="none" height="46" viewBox="0 0 45 46" width="45" xmlns="http://www.w3.org/2000/svg">
    <path
        d="M22.5 0C13.1801 0 5.625 7.72297 5.625 17.25C5.625 21.3311 7.38422 24.9198 9.33117 28.0312L21.3525 45.3934C21.6162 45.7743 22.0444 46 22.5 46C22.9556 46 23.3838 45.7743 23.6475 45.3934L35.6688 28.0312C37.5293 25.4711 39.375 21.3311 39.375 17.25C39.375 7.72297 31.8199 0 22.5 0ZM33.8112 28.0312H33.8041L22.5 43.8438L11.1959 28.0312H11.1888C9.47039 25.4933 7.03125 21.418 7.03125 17.25C7.03125 8.51719 13.957 1.4375 22.5 1.4375C31.043 1.4375 37.9688 8.51719 37.9688 17.25C37.9688 21.418 35.3538 25.7176 33.8112 28.0312Z"
        fill="#31B9E4" />
    <path
        d="M22.5 10.0625C18.6166 10.0625 15.4688 13.2811 15.4688 17.25C15.4688 21.2189 18.6166 24.4375 22.5 24.4375C26.3834 24.4375 29.5312 21.2189 29.5312 17.25C29.5312 13.2811 26.3834 10.0625 22.5 10.0625ZM22.5 23C19.3936 23 16.875 20.4254 16.875 17.25C16.875 14.0746 19.3936 11.5 22.5 11.5C25.6064 11.5 28.125 14.0746 28.125 17.25C28.125 20.4254 25.6064 23 22.5 23Z"
        fill="#31B9E4" />
    <path
        d="M22.5 7.1875C17.0634 7.1875 12.6562 11.6926 12.6562 17.25C12.6562 22.8074 17.0634 27.3125 22.5 27.3125C27.9366 27.3125 32.3438 22.8074 32.3438 17.25C32.3438 11.6926 27.9366 7.1875 22.5 7.1875ZM22.5 25.875C17.8404 25.875 14.0625 22.0132 14.0625 17.25C14.0625 12.4868 17.8404 8.625 22.5 8.625C27.1596 8.625 30.9375 12.4868 30.9375 17.25C30.9375 22.0132 27.1596 25.875 22.5 25.875Z"
        fill="#31B9E4" />
</svg>
