<svg fill="none" height="54" viewBox="0 0 244 54" width="244" xmlns="http://www.w3.org/2000/svg">
    <path
        d="M46.6616 34.5C47.2816 34.82 48.0716 35.14 49.0316 35.46C49.9916 35.78 50.9016 35.94 51.7616 35.94C52.9816 35.94 53.8916 35.75 54.4916 35.37C55.1116 34.99 55.4216 34.44 55.4216 33.72C55.4216 33.04 55.0116 32.44 54.1916 31.92C53.3916 31.38 52.5016 30.86 51.5216 30.36C50.0816 29.62 48.7016 28.75 47.3816 27.75C46.0616 26.75 45.4116 25.36 45.4316 23.58C45.4516 22.04 46.0616 20.75 47.2616 19.71C48.4816 18.65 50.2116 18.12 52.4516 18.12C53.4716 18.12 54.4916 18.28 55.5116 18.6C56.5316 18.92 57.4316 19.27 58.2116 19.65L56.9216 22.77C56.3016 22.47 55.6316 22.19 54.9116 21.93C54.1916 21.65 53.3916 21.51 52.5116 21.51C51.6516 21.51 50.9216 21.68 50.3216 22.02C49.7416 22.36 49.4516 22.88 49.4516 23.58C49.4516 24.34 49.8316 24.97 50.5916 25.47C51.3516 25.97 52.2516 26.5 53.2916 27.06C54.7516 27.8 56.1416 28.67 57.4616 29.67C58.8016 30.67 59.4616 32.04 59.4416 33.78C59.4216 35.4 58.7616 36.74 57.4616 37.8C56.1616 38.86 54.2816 39.39 51.8216 39.39C50.9616 39.39 49.8516 39.2 48.4916 38.82C47.1516 38.44 46.2516 38.05 45.7916 37.65L46.6616 34.5ZM70.0843 39.36C67.5643 39.36 65.5743 38.67 64.1143 37.29C62.6743 35.91 61.9543 34.06 61.9543 31.74C61.9543 29.42 62.6043 27.56 63.9043 26.16C65.2243 24.76 67.0143 24.06 69.2743 24.06C71.5543 24.06 73.2243 24.82 74.2843 26.34C75.3643 27.84 75.9043 29.62 75.9043 31.68V32.88H66.0943C66.2743 33.84 66.7143 34.61 67.4143 35.19C68.1143 35.75 69.0343 36.03 70.1743 36.03C70.8343 36.03 71.4243 35.95 71.9443 35.79C72.4843 35.61 73.1043 35.36 73.8043 35.04L74.9443 37.86C74.2643 38.38 73.4343 38.76 72.4543 39C71.4943 39.24 70.7043 39.36 70.0843 39.36ZM72.2143 30.27C72.0143 29.29 71.6543 28.57 71.1343 28.11C70.6143 27.63 69.9643 27.39 69.1843 27.39C68.3843 27.39 67.7143 27.64 67.1743 28.14C66.6343 28.62 66.2843 29.33 66.1243 30.27H72.2143ZM82.982 17.82V39H79.112V18.15L82.982 17.82ZM94.4007 39.36C91.8807 39.36 89.8907 38.67 88.4307 37.29C86.9907 35.91 86.2707 34.06 86.2707 31.74C86.2707 29.42 86.9207 27.56 88.2207 26.16C89.5407 24.76 91.3307 24.06 93.5907 24.06C95.8707 24.06 97.5407 24.82 98.6007 26.34C99.6807 27.84 100.221 29.62 100.221 31.68V32.88H90.4107C90.5907 33.84 91.0307 34.61 91.7307 35.19C92.4307 35.75 93.3507 36.03 94.4907 36.03C95.1507 36.03 95.7407 35.95 96.2607 35.79C96.8007 35.61 97.4207 35.36 98.1207 35.04L99.2607 37.86C98.5807 38.38 97.7507 38.76 96.7707 39C95.8107 39.24 95.0207 39.36 94.4007 39.36ZM96.5307 30.27C96.3307 29.29 95.9707 28.57 95.4507 28.11C94.9307 27.63 94.2807 27.39 93.5007 27.39C92.7007 27.39 92.0307 27.64 91.4907 28.14C90.9507 28.62 90.6007 29.33 90.4407 30.27H96.5307ZM110.148 27.39C109.048 27.39 108.188 27.81 107.568 28.65C106.948 29.47 106.638 30.5 106.638 31.74C106.638 33 106.948 34.03 107.568 34.83C108.188 35.63 109.048 36.03 110.148 36.03C110.828 36.03 111.438 35.95 111.978 35.79C112.538 35.61 113.168 35.36 113.868 35.04L114.978 37.86C114.298 38.38 113.468 38.76 112.488 39C111.528 39.24 110.738 39.36 110.118 39.36C107.758 39.36 105.918 38.67 104.598 37.29C103.278 35.91 102.618 34.06 102.618 31.74C102.618 29.42 103.278 27.56 104.598 26.16C105.918 24.76 107.758 24.06 110.118 24.06C110.738 24.06 111.518 24.19 112.458 24.45C113.418 24.71 114.258 25.09 114.978 25.59L113.868 28.38C113.168 28.06 112.538 27.82 111.978 27.66C111.438 27.48 110.828 27.39 110.148 27.39ZM126.808 38.7C126.488 38.96 126.028 39.17 125.428 39.33C124.848 39.51 124.328 39.6 123.868 39.6C122.068 39.6 120.648 39.15 119.608 38.25C118.588 37.33 118.078 36.03 118.078 34.35V27.48H116.128V24.48H118.078V21.03L121.948 20.34V24.48H124.588L125.788 27.48H121.948V33.66C121.948 34.42 122.128 35.05 122.488 35.55C122.848 36.03 123.378 36.27 124.078 36.27C124.338 36.27 124.598 36.24 124.858 36.18C125.118 36.12 125.388 36.02 125.668 35.88L126.808 38.7ZM140.14 17.82V39H136.27V18.15L140.14 17.82ZM150.749 39.36C148.449 39.34 146.649 38.64 145.349 37.26C144.069 35.88 143.429 34.02 143.429 31.68C143.429 29.36 144.099 27.51 145.439 26.13C146.799 24.75 148.649 24.06 150.989 24.06C153.409 24.06 155.279 24.78 156.599 26.22C157.939 27.64 158.609 29.51 158.609 31.83C158.609 34.15 157.889 35.98 156.449 37.32C155.009 38.66 153.109 39.34 150.749 39.36ZM154.589 31.83C154.589 30.45 154.279 29.37 153.659 28.59C153.059 27.79 152.199 27.39 151.079 27.39C149.939 27.39 149.049 27.74 148.409 28.44C147.769 29.14 147.449 30.21 147.449 31.65C147.449 33.09 147.719 34.18 148.259 34.92C148.819 35.66 149.669 36.03 150.809 36.03C151.929 36.03 152.839 35.7 153.539 35.04C154.239 34.36 154.589 33.29 154.589 31.83ZM168.654 27.39C167.554 27.39 166.694 27.81 166.074 28.65C165.454 29.47 165.144 30.5 165.144 31.74C165.144 33 165.454 34.03 166.074 34.83C166.694 35.63 167.554 36.03 168.654 36.03C169.334 36.03 169.944 35.95 170.484 35.79C171.044 35.61 171.674 35.36 172.374 35.04L173.484 37.86C172.804 38.38 171.974 38.76 170.994 39C170.034 39.24 169.244 39.36 168.624 39.36C166.264 39.36 164.424 38.67 163.104 37.29C161.784 35.91 161.124 34.06 161.124 31.74C161.124 29.42 161.784 27.56 163.104 26.16C164.424 24.76 166.264 24.06 168.624 24.06C169.244 24.06 170.024 24.19 170.964 24.45C171.924 24.71 172.764 25.09 173.484 25.59L172.374 28.38C171.674 28.06 171.044 27.82 170.484 27.66C169.944 27.48 169.334 27.39 168.654 27.39ZM179.224 34.65C179.224 35.07 179.394 35.45 179.734 35.79C180.074 36.11 180.524 36.27 181.084 36.27C181.624 36.27 182.164 36.15 182.704 35.91C183.264 35.67 183.794 35.31 184.294 34.83V32.61H181.354C180.674 32.61 180.144 32.82 179.764 33.24C179.404 33.66 179.224 34.13 179.224 34.65ZM181.144 39.36C179.364 39.36 178.044 38.93 177.184 38.07C176.324 37.19 175.894 36.05 175.894 34.65C175.894 33.15 176.404 32 177.424 31.2C178.444 30.4 179.774 30 181.414 30H184.264C184.244 29.26 184.024 28.69 183.604 28.29C183.204 27.87 182.644 27.66 181.924 27.66C181.244 27.66 180.504 27.76 179.704 27.96C178.904 28.14 178.234 28.36 177.694 28.62L176.644 25.38C177.204 25 178.054 24.69 179.194 24.45C180.354 24.19 181.244 24.06 181.864 24.06C183.604 24.06 185.094 24.57 186.334 25.59C187.574 26.59 188.194 27.87 188.194 29.43V39H186.184L185.224 37.77C184.684 38.19 184.044 38.56 183.304 38.88C182.584 39.2 181.864 39.36 181.144 39.36ZM200.783 38.7C200.463 38.96 200.003 39.17 199.403 39.33C198.823 39.51 198.303 39.6 197.843 39.6C196.043 39.6 194.623 39.15 193.583 38.25C192.563 37.33 192.053 36.03 192.053 34.35V27.48H190.103V24.48H192.053V21.03L195.923 20.34V24.48H198.563L199.763 27.48H195.923V33.66C195.923 34.42 196.103 35.05 196.463 35.55C196.823 36.03 197.353 36.27 198.053 36.27C198.313 36.27 198.573 36.24 198.833 36.18C199.093 36.12 199.363 36.02 199.643 35.88L200.783 38.7ZM204.895 18C205.515 18 206.035 18.21 206.455 18.63C206.895 19.05 207.115 19.57 207.115 20.19C207.115 20.81 206.895 21.33 206.455 21.75C206.035 22.17 205.515 22.38 204.895 22.38C204.295 22.38 203.785 22.17 203.365 21.75C202.945 21.33 202.735 20.81 202.735 20.19C202.735 19.57 202.945 19.05 203.365 18.63C203.785 18.21 204.295 18 204.895 18ZM206.845 24.45V39H202.945V24.45H206.845ZM217.341 39.36C215.041 39.34 213.241 38.64 211.941 37.26C210.661 35.88 210.021 34.02 210.021 31.68C210.021 29.36 210.691 27.51 212.031 26.13C213.391 24.75 215.241 24.06 217.581 24.06C220.001 24.06 221.871 24.78 223.191 26.22C224.531 27.64 225.201 29.51 225.201 31.83C225.201 34.15 224.481 35.98 223.041 37.32C221.601 38.66 219.701 39.34 217.341 39.36ZM221.181 31.83C221.181 30.45 220.871 29.37 220.251 28.59C219.651 27.79 218.791 27.39 217.671 27.39C216.531 27.39 215.641 27.74 215.001 28.44C214.361 29.14 214.041 30.21 214.041 31.65C214.041 33.09 214.311 34.18 214.851 34.92C215.411 35.66 216.261 36.03 217.401 36.03C218.521 36.03 219.431 35.7 220.131 35.04C220.831 34.36 221.181 33.29 221.181 31.83ZM231.526 26.01C232.186 25.35 233.006 24.83 233.986 24.45C234.986 24.07 235.876 23.88 236.656 23.88C238.636 23.88 240.036 24.46 240.856 25.62C241.696 26.78 242.116 28.2 242.116 29.88V39H238.216V30.06C238.216 29.14 237.996 28.44 237.556 27.96C237.116 27.46 236.476 27.21 235.636 27.21C235.076 27.21 234.486 27.36 233.866 27.66C233.266 27.94 232.716 28.27 232.216 28.65V39H228.316V24.45H230.356L231.526 26.01Z"
        fill="#1F1F29" />
    <path
        d="M17 10C9.95828 10 4.25 15.7083 4.25 22.75C4.25 25.7664 5.57919 28.419 7.05022 30.7188L16.133 43.5516C16.3322 43.8332 16.6558 44 17 44C17.3442 44 17.6678 43.8332 17.867 43.5516L26.9498 30.7188C28.3555 28.8264 29.75 25.7664 29.75 22.75C29.75 15.7083 24.0417 10 17 10ZM25.5462 30.7188H25.5409L17 42.4062L8.45909 30.7188H8.45378C7.15541 28.8429 5.3125 25.8307 5.3125 22.75C5.3125 16.2953 10.5453 11.0625 17 11.0625C23.4547 11.0625 28.6875 16.2953 28.6875 22.75C28.6875 25.8307 26.7118 29.0087 25.5462 30.7188Z"
        fill="#1F1F29" />
    <path
        d="M17 17.4375C14.0659 17.4375 11.6875 19.8164 11.6875 22.75C11.6875 25.6836 14.0659 28.0625 17 28.0625C19.9341 28.0625 22.3125 25.6836 22.3125 22.75C22.3125 19.8164 19.9341 17.4375 17 17.4375ZM17 27C14.6529 27 12.75 25.0971 12.75 22.75C12.75 20.4029 14.6529 18.5 17 18.5C19.3471 18.5 21.25 20.4029 21.25 22.75C21.25 25.0971 19.3471 27 17 27Z"
        fill="#1F1F29" />
    <path
        d="M17 15.3125C12.8924 15.3125 9.5625 18.6424 9.5625 22.75C9.5625 26.8576 12.8924 30.1875 17 30.1875C21.1076 30.1875 24.4375 26.8576 24.4375 22.75C24.4375 18.6424 21.1076 15.3125 17 15.3125ZM17 29.125C13.4794 29.125 10.625 26.2706 10.625 22.75C10.625 19.2294 13.4794 16.375 17 16.375C20.5206 16.375 23.375 19.2294 23.375 22.75C23.375 26.2706 20.5206 29.125 17 29.125Z"
        fill="#1F1F29" />
</svg>
