<svg fill="none" height="45" viewBox="0 0 45 45" width="45" xmlns="http://www.w3.org/2000/svg">
    <path
        d="M36.0727 9.41382C38.8149 9.41382 41.0572 11.5545 41.2195 14.256L41.2289 14.5701V30.5171C41.2289 33.2593 39.0882 35.5016 36.3868 35.6639L36.0727 35.6734H8.92676C6.18451 35.6734 3.94225 33.5327 3.77992 30.8312L3.77051 30.5171V14.5701C3.77051 11.8278 5.9112 9.58556 8.61265 9.42323L8.92676 9.41382H36.0727ZM38.4149 20.6151H6.58113L6.58301 30.5171C6.58301 31.7306 7.50527 32.7287 8.68712 32.8487L8.92676 32.8609H36.0727C37.2862 32.8609 38.2843 31.9386 38.4043 30.7567L38.4164 30.5171L38.4149 20.6151ZM34.224 27.1875C35.0006 27.1875 35.6302 27.8171 35.6302 28.5937C35.6302 29.3057 35.1012 29.894 34.4148 29.9872L34.224 30H29.5365C28.7598 30 28.1302 29.3704 28.1302 28.5937C28.1302 27.8818 28.6593 27.2934 29.3457 27.2003L29.5365 27.1875H34.224ZM36.0727 12.2263H8.92676C7.71324 12.2263 6.71513 13.1486 6.59511 14.3304L6.58301 14.5701L6.58113 17.8026H38.4149L38.4164 14.5701C38.4164 13.3566 37.4942 12.3584 36.3123 12.2384L36.0727 12.2263Z"
        fill="#31B9E4" />
</svg>
