<svg fill="none" height="54" viewBox="0 0 266 54" width="266" xmlns="http://www.w3.org/2000/svg">
    <path
        d="M57.7505 34.5C58.3705 34.82 59.1605 35.14 60.1205 35.46C61.0805 35.78 61.9905 35.94 62.8505 35.94C64.0705 35.94 64.9805 35.75 65.5805 35.37C66.2005 34.99 66.5105 34.44 66.5105 33.72C66.5105 33.04 66.1005 32.44 65.2805 31.92C64.4805 31.38 63.5905 30.86 62.6105 30.36C61.1705 29.62 59.7905 28.75 58.4705 27.75C57.1505 26.75 56.5005 25.36 56.5205 23.58C56.5405 22.04 57.1505 20.75 58.3505 19.71C59.5705 18.65 61.3005 18.12 63.5405 18.12C64.5605 18.12 65.5805 18.28 66.6005 18.6C67.6205 18.92 68.5205 19.27 69.3005 19.65L68.0105 22.77C67.3905 22.47 66.7205 22.19 66.0005 21.93C65.2805 21.65 64.4805 21.51 63.6005 21.51C62.7405 21.51 62.0105 21.68 61.4105 22.02C60.8305 22.36 60.5405 22.88 60.5405 23.58C60.5405 24.34 60.9205 24.97 61.6805 25.47C62.4405 25.97 63.3405 26.5 64.3805 27.06C65.8405 27.8 67.2305 28.67 68.5505 29.67C69.8905 30.67 70.5505 32.04 70.5305 33.78C70.5105 35.4 69.8505 36.74 68.5505 37.8C67.2505 38.86 65.3705 39.39 62.9105 39.39C62.0505 39.39 60.9405 39.2 59.5805 38.82C58.2405 38.44 57.3405 38.05 56.8805 37.65L57.7505 34.5ZM81.1732 39.36C78.6532 39.36 76.6632 38.67 75.2032 37.29C73.7632 35.91 73.0432 34.06 73.0432 31.74C73.0432 29.42 73.6932 27.56 74.9932 26.16C76.3132 24.76 78.1032 24.06 80.3632 24.06C82.6432 24.06 84.3132 24.82 85.3732 26.34C86.4532 27.84 86.9932 29.62 86.9932 31.68V32.88H77.1832C77.3632 33.84 77.8032 34.61 78.5032 35.19C79.2032 35.75 80.1232 36.03 81.2632 36.03C81.9232 36.03 82.5132 35.95 83.0332 35.79C83.5732 35.61 84.1932 35.36 84.8932 35.04L86.0332 37.86C85.3532 38.38 84.5232 38.76 83.5432 39C82.5832 39.24 81.7932 39.36 81.1732 39.36ZM83.3032 30.27C83.1032 29.29 82.7432 28.57 82.2232 28.11C81.7032 27.63 81.0532 27.39 80.2732 27.39C79.4732 27.39 78.8032 27.64 78.2632 28.14C77.7232 28.62 77.3732 29.33 77.2132 30.27H83.3032ZM94.0709 17.82V39H90.2009V18.15L94.0709 17.82ZM105.49 39.36C102.97 39.36 100.98 38.67 99.5196 37.29C98.0796 35.91 97.3596 34.06 97.3596 31.74C97.3596 29.42 98.0096 27.56 99.3096 26.16C100.63 24.76 102.42 24.06 104.68 24.06C106.96 24.06 108.63 24.82 109.69 26.34C110.77 27.84 111.31 29.62 111.31 31.68V32.88H101.5C101.68 33.84 102.12 34.61 102.82 35.19C103.52 35.75 104.44 36.03 105.58 36.03C106.24 36.03 106.83 35.95 107.35 35.79C107.89 35.61 108.51 35.36 109.21 35.04L110.35 37.86C109.67 38.38 108.84 38.76 107.86 39C106.9 39.24 106.11 39.36 105.49 39.36ZM107.62 30.27C107.42 29.29 107.06 28.57 106.54 28.11C106.02 27.63 105.37 27.39 104.59 27.39C103.79 27.39 103.12 27.64 102.58 28.14C102.04 28.62 101.69 29.33 101.53 30.27H107.62ZM121.237 27.39C120.137 27.39 119.277 27.81 118.657 28.65C118.037 29.47 117.727 30.5 117.727 31.74C117.727 33 118.037 34.03 118.657 34.83C119.277 35.63 120.137 36.03 121.237 36.03C121.917 36.03 122.527 35.95 123.067 35.79C123.627 35.61 124.257 35.36 124.957 35.04L126.067 37.86C125.387 38.38 124.557 38.76 123.577 39C122.617 39.24 121.827 39.36 121.207 39.36C118.847 39.36 117.007 38.67 115.687 37.29C114.367 35.91 113.707 34.06 113.707 31.74C113.707 29.42 114.367 27.56 115.687 26.16C117.007 24.76 118.847 24.06 121.207 24.06C121.827 24.06 122.607 24.19 123.547 24.45C124.507 24.71 125.347 25.09 126.067 25.59L124.957 28.38C124.257 28.06 123.627 27.82 123.067 27.66C122.527 27.48 121.917 27.39 121.237 27.39ZM137.897 38.7C137.577 38.96 137.117 39.17 136.517 39.33C135.937 39.51 135.417 39.6 134.957 39.6C133.157 39.6 131.737 39.15 130.697 38.25C129.677 37.33 129.167 36.03 129.167 34.35V27.48H127.217V24.48H129.167V21.03L133.037 20.34V24.48H135.677L136.877 27.48H133.037V33.66C133.037 34.42 133.217 35.05 133.577 35.55C133.937 36.03 134.467 36.27 135.167 36.27C135.427 36.27 135.687 36.24 135.947 36.18C136.207 36.12 136.477 36.02 136.757 35.88L137.897 38.7ZM147.809 39V18.6H154.199C156.419 18.6 158.319 19.11 159.899 20.13C161.479 21.13 162.269 22.8 162.269 25.14C162.249 27.46 161.389 29.17 159.689 30.27C158.009 31.35 156.089 31.89 153.929 31.89H151.679V39H147.809ZM154.079 21.84H151.679V28.68H154.139C155.299 28.68 156.239 28.42 156.959 27.9C157.679 27.36 158.079 26.52 158.159 25.38C158.159 24.06 157.799 23.14 157.079 22.62C156.359 22.1 155.359 21.84 154.079 21.84ZM168.282 34.65C168.282 35.07 168.452 35.45 168.792 35.79C169.132 36.11 169.582 36.27 170.142 36.27C170.682 36.27 171.222 36.15 171.762 35.91C172.322 35.67 172.852 35.31 173.352 34.83V32.61H170.412C169.732 32.61 169.202 32.82 168.822 33.24C168.462 33.66 168.282 34.13 168.282 34.65ZM170.202 39.36C168.422 39.36 167.102 38.93 166.242 38.07C165.382 37.19 164.952 36.05 164.952 34.65C164.952 33.15 165.462 32 166.482 31.2C167.502 30.4 168.832 30 170.472 30H173.322C173.302 29.26 173.082 28.69 172.662 28.29C172.262 27.87 171.702 27.66 170.982 27.66C170.302 27.66 169.562 27.76 168.762 27.96C167.962 28.14 167.292 28.36 166.752 28.62L165.702 25.38C166.262 25 167.112 24.69 168.252 24.45C169.412 24.19 170.302 24.06 170.922 24.06C172.662 24.06 174.152 24.57 175.392 25.59C176.632 26.59 177.252 27.87 177.252 29.43V39H175.242L174.282 37.77C173.742 38.19 173.102 38.56 172.362 38.88C171.642 39.2 170.922 39.36 170.202 39.36ZM183.66 39.69L184.35 37.98L179.16 24.99L183.18 24.45L186.54 33.27L189.72 24.45H193.83L188.1 39L187.32 40.92C186.86 42.1 186.05 43.11 184.89 43.95C183.73 44.79 182.51 45.36 181.23 45.66L179.85 42.45C180.55 42.15 181.29 41.78 182.07 41.34C182.87 40.92 183.4 40.37 183.66 39.69ZM208.35 26.16C208.97 25.46 209.79 24.91 210.81 24.51C211.85 24.09 212.78 23.88 213.6 23.88C215.58 23.88 216.98 24.46 217.8 25.62C218.64 26.78 219.06 28.2 219.06 29.88V39H215.13V30.06C215.13 29.14 214.91 28.44 214.47 27.96C214.03 27.46 213.39 27.21 212.55 27.21C211.99 27.21 211.4 27.36 210.78 27.66C210.16 27.96 209.6 28.3 209.1 28.68C209.12 28.88 209.14 29.08 209.16 29.28C209.18 29.48 209.19 29.68 209.19 29.88V39H205.26V30.06C205.26 29.14 205.04 28.44 204.6 27.96C204.16 27.46 203.53 27.21 202.71 27.21C202.21 27.21 201.7 27.32 201.18 27.54C200.68 27.74 200.2 28 199.74 28.32V39H195.84V24.45H197.88L198.84 25.77C199.5 25.17 200.29 24.71 201.21 24.39C202.15 24.05 202.99 23.88 203.73 23.88C204.87 23.88 205.82 24.09 206.58 24.51C207.34 24.91 207.93 25.46 208.35 26.16ZM230.148 39.36C227.628 39.36 225.638 38.67 224.178 37.29C222.738 35.91 222.018 34.06 222.018 31.74C222.018 29.42 222.668 27.56 223.968 26.16C225.288 24.76 227.078 24.06 229.338 24.06C231.618 24.06 233.288 24.82 234.348 26.34C235.428 27.84 235.968 29.62 235.968 31.68V32.88H226.158C226.338 33.84 226.778 34.61 227.478 35.19C228.178 35.75 229.098 36.03 230.238 36.03C230.898 36.03 231.488 35.95 232.008 35.79C232.548 35.61 233.168 35.36 233.868 35.04L235.008 37.86C234.328 38.38 233.498 38.76 232.518 39C231.558 39.24 230.768 39.36 230.148 39.36ZM232.278 30.27C232.078 29.29 231.718 28.57 231.198 28.11C230.678 27.63 230.028 27.39 229.248 27.39C228.448 27.39 227.778 27.64 227.238 28.14C226.698 28.62 226.348 29.33 226.188 30.27H232.278ZM242.175 26.01C242.835 25.35 243.655 24.83 244.635 24.45C245.635 24.07 246.525 23.88 247.305 23.88C249.285 23.88 250.685 24.46 251.505 25.62C252.345 26.78 252.765 28.2 252.765 29.88V39H248.865V30.06C248.865 29.14 248.645 28.44 248.205 27.96C247.765 27.46 247.125 27.21 246.285 27.21C245.725 27.21 245.135 27.36 244.515 27.66C243.915 27.94 243.365 28.27 242.865 28.65V39H238.965V24.45H241.005L242.175 26.01ZM265.368 38.7C265.048 38.96 264.588 39.17 263.988 39.33C263.408 39.51 262.888 39.6 262.428 39.6C260.628 39.6 259.208 39.15 258.168 38.25C257.148 37.33 256.638 36.03 256.638 34.35V27.48H254.688V24.48H256.638V21.03L260.508 20.34V24.48H263.148L264.348 27.48H260.508V33.66C260.508 34.42 260.688 35.05 261.048 35.55C261.408 36.03 261.938 36.27 262.638 36.27C262.898 36.27 263.158 36.24 263.418 36.18C263.678 36.12 263.948 36.02 264.228 35.88L265.368 38.7Z"
        fill="#1F1F29" />
    <path
        d="M38.7626 11C42.0533 11 44.744 13.5688 44.9388 16.8106L44.9501 17.1875V36.3239C44.9501 39.6146 42.3813 42.3054 39.1396 42.5002L38.7626 42.5114H6.1875C2.8968 42.5114 0.206091 39.9426 0.0112926 36.7009L0 36.3239V17.1875C0 13.8968 2.56884 11.2061 5.81057 11.0113L6.1875 11H38.7626ZM41.5732 24.4415H3.37275L3.375 36.3239C3.375 37.7802 4.48172 38.9779 5.89994 39.1219L6.1875 39.1364H38.7626C40.2188 39.1364 41.4166 38.0297 41.5606 36.6115L41.5751 36.3239L41.5732 24.4415ZM36.5442 32.3284C37.4762 32.3284 38.2317 33.0839 38.2317 34.0159C38.2317 34.8702 37.5968 35.5763 36.7732 35.688L36.5442 35.7034H30.9192C29.9872 35.7034 29.2317 34.9479 29.2317 34.0159C29.2317 33.1616 29.8665 32.4556 30.6902 32.3438L30.9192 32.3284H36.5442ZM38.7626 14.375H6.1875C4.73128 14.375 3.53355 15.4817 3.38952 16.8999L3.375 17.1875L3.37275 21.0665H41.5732L41.5751 17.1875C41.5751 15.7313 40.4684 14.5335 39.0502 14.3895L38.7626 14.375Z"
        fill="#1F1F29" />
</svg>
