<svg fill="none" height="63" viewBox="0 0 63 63" width="63" xmlns="http://www.w3.org/2000/svg">
    <path
        d="M31.5 34.5384C35.6952 34.5384 39.0961 31.1375 39.0961 26.9423C39.0961 22.747 35.6952 19.3461 31.5 19.3461C27.3047 19.3461 23.9038 22.747 23.9038 26.9423C23.9038 31.1375 27.3047 34.5384 31.5 34.5384Z"
        stroke="#31B9E4" stroke-linecap="round" stroke-linejoin="round" stroke-width="2" />
    <path
        d="M18.5259 46.3884C19.8818 44.1628 21.7874 42.3234 24.0595 41.047C26.3317 39.7706 28.894 39.1002 31.5001 39.1002C34.1062 39.1002 36.6685 39.7706 38.9407 41.047C41.2128 42.3234 43.1185 44.1628 44.4743 46.3884"
        stroke="#31B9E4" stroke-linecap="round" stroke-linejoin="round" stroke-width="2" />
    <path
        d="M31.5 51.25C42.4076 51.25 51.25 42.4076 51.25 31.5C51.25 20.5924 42.4076 11.75 31.5 11.75C20.5924 11.75 11.75 20.5924 11.75 31.5C11.75 42.4076 20.5924 51.25 31.5 51.25Z"
        stroke="#31B9E4" stroke-linecap="round" stroke-linejoin="round" stroke-width="2" />
</svg>
