<svg fill="none" height="23" viewBox="0 0 194 23" width="194" xmlns="http://www.w3.org/2000/svg">
    <path
        d="M6.99898 4.84H4.59898V11.08H7.05898C8.21898 11.08 9.17898 10.85 9.93899 10.39C10.699 9.91 11.079 9.13 11.079 8.05C11.079 6.91 10.719 6.09 9.99898 5.59C9.27898 5.09 8.27898 4.84 6.99898 4.84ZM12.579 22L8.25898 14.2C8.03898 14.22 7.80898 14.24 7.56898 14.26C7.32898 14.26 7.08898 14.26 6.84898 14.26H4.59898V22H0.728985V1.6H7.11898C9.33899 1.6 11.239 2.11 12.819 3.13C14.399 4.15 15.189 5.73 15.189 7.87C15.189 9.13 14.859 10.22 14.199 11.14C13.559 12.04 12.729 12.74 11.709 13.24L16.719 22H12.579ZM26.4076 22.36C23.8876 22.36 21.8976 21.67 20.4376 20.29C18.9976 18.91 18.2776 17.06 18.2776 14.74C18.2776 12.42 18.9276 10.56 20.2276 9.16C21.5476 7.76 23.3376 7.06 25.5976 7.06C27.8776 7.06 29.5476 7.82 30.6076 9.34C31.6876 10.84 32.2276 12.62 32.2276 14.68V15.88H22.4176C22.5976 16.84 23.0376 17.61 23.7376 18.19C24.4376 18.75 25.3576 19.03 26.4976 19.03C27.1576 19.03 27.7476 18.95 28.2676 18.79C28.8076 18.61 29.4276 18.36 30.1276 18.04L31.2676 20.86C30.5876 21.38 29.7576 21.76 28.7776 22C27.8176 22.24 27.0276 22.36 26.4076 22.36ZM28.5376 13.27C28.3376 12.29 27.9776 11.57 27.4576 11.11C26.9376 10.63 26.2876 10.39 25.5076 10.39C24.7076 10.39 24.0376 10.64 23.4976 11.14C22.9576 11.62 22.6076 12.33 22.4476 13.27H28.5376ZM39.1252 22L33.5452 7.99L37.5652 7.45L40.9252 16.27L44.1052 7.45H48.2152L42.4852 22H39.1252ZM52.1752 0.999999C52.7952 0.999999 53.3152 1.21 53.7352 1.63C54.1752 2.05 54.3952 2.57 54.3952 3.19C54.3952 3.81 54.1752 4.33 53.7352 4.75C53.3152 5.17 52.7952 5.38 52.1752 5.38C51.5752 5.38 51.0652 5.17 50.6452 4.75C50.2252 4.33 50.0152 3.81 50.0152 3.19C50.0152 2.57 50.2252 2.05 50.6452 1.63C51.0652 1.21 51.5752 0.999999 52.1752 0.999999ZM54.1252 7.45V22H50.2252V7.45H54.1252ZM65.431 22.36C62.911 22.36 60.921 21.67 59.461 20.29C58.021 18.91 57.301 17.06 57.301 14.74C57.301 12.42 57.951 10.56 59.251 9.16C60.571 7.76 62.361 7.06 64.621 7.06C66.901 7.06 68.571 7.82 69.631 9.34C70.711 10.84 71.251 12.62 71.251 14.68V15.88H61.441C61.621 16.84 62.061 17.61 62.761 18.19C63.461 18.75 64.381 19.03 65.521 19.03C66.181 19.03 66.771 18.95 67.291 18.79C67.831 18.61 68.451 18.36 69.151 18.04L70.291 20.86C69.611 21.38 68.781 21.76 67.801 22C66.841 22.24 66.051 22.36 65.431 22.36ZM67.561 13.27C67.361 12.29 67.001 11.57 66.481 11.11C65.961 10.63 65.311 10.39 64.531 10.39C63.731 10.39 63.061 10.64 62.521 11.14C61.981 11.62 61.631 12.33 61.471 13.27H67.561ZM86.6387 22L83.6087 13.09L80.6987 22H77.3987L72.5687 7.99L76.5887 7.45L79.1387 15.91L81.5387 7.45H85.8287L88.3787 15.91L90.7487 7.45H94.8587L89.9087 22H86.6387ZM112.085 22.03V22H104.645V1.6H112.085C115.265 1.58 117.625 2.53 119.165 4.45C120.705 6.35 121.475 8.76 121.475 11.68C121.475 14.84 120.655 17.34 119.015 19.18C117.375 21.02 115.065 21.97 112.085 22.03ZM112.235 4.9H108.515V18.73H112.025C113.665 18.73 114.975 18.19 115.955 17.11C116.955 16.03 117.455 14.22 117.455 11.68C117.455 9.56 117.035 7.9 116.195 6.7C115.355 5.5 114.035 4.9 112.235 4.9ZM132.609 22.36C130.089 22.36 128.099 21.67 126.639 20.29C125.199 18.91 124.479 17.06 124.479 14.74C124.479 12.42 125.129 10.56 126.429 9.16C127.749 7.76 129.539 7.06 131.799 7.06C134.079 7.06 135.749 7.82 136.809 9.34C137.889 10.84 138.429 12.62 138.429 14.68V15.88H128.619C128.799 16.84 129.239 17.61 129.939 18.19C130.639 18.75 131.559 19.03 132.699 19.03C133.359 19.03 133.949 18.95 134.469 18.79C135.009 18.61 135.629 18.36 136.329 18.04L137.469 20.86C136.789 21.38 135.959 21.76 134.979 22C134.019 22.24 133.229 22.36 132.609 22.36ZM134.739 13.27C134.539 12.29 134.179 11.57 133.659 11.11C133.139 10.63 132.489 10.39 131.709 10.39C130.909 10.39 130.239 10.64 129.699 11.14C129.159 11.62 128.809 12.33 128.649 13.27H134.739ZM150.426 21.7C150.106 21.96 149.646 22.17 149.046 22.33C148.466 22.51 147.946 22.6 147.486 22.6C145.686 22.6 144.266 22.15 143.226 21.25C142.206 20.33 141.696 19.03 141.696 17.35V10.48H139.746V7.48H141.696V4.03L145.566 3.34V7.48H148.206L149.406 10.48H145.566V16.66C145.566 17.42 145.746 18.05 146.106 18.55C146.466 19.03 146.996 19.27 147.696 19.27C147.956 19.27 148.216 19.24 148.476 19.18C148.736 19.12 149.006 19.02 149.286 18.88L150.426 21.7ZM155.499 17.65C155.499 18.07 155.669 18.45 156.009 18.79C156.349 19.11 156.799 19.27 157.359 19.27C157.899 19.27 158.439 19.15 158.979 18.91C159.539 18.67 160.069 18.31 160.569 17.83V15.61H157.629C156.949 15.61 156.419 15.82 156.039 16.24C155.679 16.66 155.499 17.13 155.499 17.65ZM157.419 22.36C155.639 22.36 154.319 21.93 153.459 21.07C152.599 20.19 152.169 19.05 152.169 17.65C152.169 16.15 152.679 15 153.699 14.2C154.719 13.4 156.049 13 157.689 13H160.539C160.519 12.26 160.299 11.69 159.879 11.29C159.479 10.87 158.919 10.66 158.199 10.66C157.519 10.66 156.779 10.76 155.979 10.96C155.179 11.14 154.509 11.36 153.969 11.62L152.919 8.38C153.479 8 154.329 7.69 155.469 7.45C156.629 7.19 157.519 7.06 158.139 7.06C159.879 7.06 161.369 7.57 162.609 8.59C163.849 9.59 164.469 10.87 164.469 12.43V22H162.459L161.499 20.77C160.959 21.19 160.319 21.56 159.579 21.88C158.859 22.2 158.139 22.36 157.419 22.36ZM170.007 0.999999C170.627 0.999999 171.147 1.21 171.567 1.63C172.007 2.05 172.227 2.57 172.227 3.19C172.227 3.81 172.007 4.33 171.567 4.75C171.147 5.17 170.627 5.38 170.007 5.38C169.407 5.38 168.897 5.17 168.477 4.75C168.057 4.33 167.847 3.81 167.847 3.19C167.847 2.57 168.057 2.05 168.477 1.63C168.897 1.21 169.407 0.999999 170.007 0.999999ZM171.957 7.45V22H168.057V7.45H171.957ZM179.813 0.819999V22H175.943V1.15L179.813 0.819999ZM192.252 11.38C191.552 11.06 190.902 10.82 190.302 10.66C189.702 10.48 189.062 10.39 188.382 10.39C187.882 10.39 187.492 10.49 187.212 10.69C186.952 10.87 186.822 11.13 186.822 11.47C186.822 11.71 186.982 11.94 187.302 12.16C187.642 12.38 188.182 12.62 188.922 12.88C190.142 13.32 191.272 13.94 192.312 14.74C193.352 15.52 193.872 16.54 193.872 17.8C193.872 19.24 193.352 20.36 192.312 21.16C191.292 21.96 189.792 22.36 187.812 22.36C187.192 22.36 186.362 22.24 185.322 22C184.302 21.76 183.452 21.38 182.772 20.86L183.942 18.04C184.642 18.36 185.312 18.61 185.952 18.79C186.612 18.95 187.212 19.03 187.752 19.03C188.472 19.03 189.022 18.93 189.402 18.73C189.782 18.53 189.972 18.27 189.972 17.95C189.972 17.55 189.782 17.19 189.402 16.87C189.022 16.55 188.422 16.26 187.602 16C186.442 15.62 185.342 15.08 184.302 14.38C183.282 13.66 182.772 12.7 182.772 11.5C182.772 10.12 183.282 9.04 184.302 8.26C185.322 7.46 186.702 7.06 188.442 7.06C189.062 7.06 189.862 7.19 190.842 7.45C191.822 7.71 192.682 8.09 193.422 8.59L192.252 11.38Z"
        fill="#1F1F29" />
</svg>
