<svg fill="none" height="45" viewBox="0 0 45 45" width="45" xmlns="http://www.w3.org/2000/svg">
    <path
        d="M19.2997 25.708C19.4315 25.8399 19.5055 26.0186 19.5055 26.205C19.5055 26.3914 19.4315 26.5702 19.2997 26.702L11.3851 34.6175C11.3198 34.6827 11.2423 34.7345 11.1569 34.7698C11.0716 34.8051 10.9802 34.8233 10.8878 34.8232C10.7013 34.8231 10.5225 34.749 10.3907 34.617C10.2588 34.4851 10.1848 34.3062 10.1849 34.1197C10.185 33.9332 10.2592 33.7544 10.3911 33.6226L18.3057 25.708C18.4375 25.5762 18.6163 25.5022 18.8027 25.5022C18.9891 25.5022 19.1678 25.5762 19.2997 25.708ZM37.646 34.1455C37.6103 34.2617 37.5451 34.3666 37.4567 34.4501C37.3684 34.5335 37.2599 34.5926 37.1419 34.6217C37.0239 34.6507 36.9004 34.6487 36.7834 34.6157C36.6664 34.5828 36.5599 34.5201 36.4744 34.4338L34.0882 32.0476L32.7918 33.3448L35.1789 35.7328C35.2645 35.8186 35.3265 35.9252 35.3589 36.042C35.3912 36.1589 35.3927 36.2821 35.3634 36.3998C35.334 36.5174 35.2747 36.6254 35.1913 36.7134C35.1078 36.8014 35.003 36.8662 34.8871 36.9018C34.4574 37.0319 34.0107 37.0973 33.5617 37.096C32.1871 37.096 30.7694 36.5071 29.7024 35.4401C28.682 34.4197 28.0896 33.0873 28.0483 31.7435L23.4446 27.1389C23.3876 27.1073 23.3352 27.068 23.2891 27.022L22.7995 26.5324C22.6147 27.1439 22.281 27.6999 21.8283 28.1505L13.2616 36.7172C12.5814 37.4053 11.6647 37.8088 10.6978 37.8457H10.566C10.117 37.8502 9.67164 37.7653 9.25578 37.596C8.83992 37.4267 8.4619 37.1764 8.14374 36.8596C6.77352 35.4894 6.83856 33.1937 8.28964 31.7426L16.8563 23.1759C17.307 22.7236 17.8626 22.39 18.4735 22.2047L17.9857 21.7169C17.9397 21.6707 17.9004 21.6184 17.8688 21.5613L13.2502 16.9418C11.9072 16.9014 10.5757 16.309 9.55878 15.2886C8.14286 13.8709 7.56893 11.8371 8.09628 10.103C8.13171 9.98692 8.1966 9.88197 8.28463 9.79839C8.37266 9.7148 8.48083 9.65543 8.59861 9.62605C8.71639 9.59667 8.83977 9.59829 8.95674 9.63074C9.07371 9.66319 9.18029 9.72537 9.2661 9.81123L11.6532 12.1975L12.9505 10.8993L10.5599 8.51748C10.474 8.43167 10.4118 8.32509 10.3794 8.20812C10.3469 8.09115 10.3453 7.96777 10.3747 7.84999C10.4041 7.7322 10.4634 7.62404 10.547 7.53601C10.6306 7.44798 10.7355 7.38309 10.8516 7.34766C12.584 6.82031 14.6195 7.39248 16.0372 8.80928C17.0585 9.82969 17.6509 11.1621 17.6922 12.5068L23.8445 18.6592L33.32 9.17754C33.3686 9.12764 33.4247 9.08555 33.4861 9.05273L36.7644 7.29492C36.8973 7.22429 37.0492 7.19811 37.198 7.22024C37.3468 7.24237 37.4846 7.31163 37.5911 7.41784C37.6976 7.52406 37.7672 7.66164 37.7898 7.81037C37.8123 7.9591 37.7866 8.11113 37.7163 8.24414L35.9515 11.5225C35.919 11.5829 35.8778 11.6383 35.8293 11.6868L26.3503 21.1658L32.4894 27.305C33.8324 27.3454 35.1631 27.9378 36.1809 28.9582C37.6003 30.3759 38.1733 32.4105 37.646 34.142V34.1455ZM24.8491 24.467L20.5425 20.1604L19.4975 21.2045L23.8041 25.5111L24.8491 24.467ZM23.4288 21.0568L23.95 21.578L34.7605 10.7675L35.367 9.64072L34.2393 10.2463L23.4288 21.0568ZM14.0386 15.7447L18.5025 20.2087L20.0441 18.6671C20.176 18.5353 20.3548 18.4613 20.5412 18.4613C20.7276 18.4613 20.9063 18.5353 21.0382 18.6671L22.4339 20.0628L22.8461 19.6506L16.4907 13.2952C16.4225 13.2271 16.3691 13.1456 16.3337 13.056C16.2983 12.9663 16.2818 12.8704 16.285 12.774C16.3211 11.7123 15.8684 10.6295 15.0423 9.8042C14.3906 9.14036 13.5372 8.71134 12.6156 8.58428L14.4385 10.408C14.5702 10.5399 14.6442 10.7186 14.6442 10.905C14.6442 11.0914 14.5702 11.2702 14.4385 11.402L12.1463 13.6942C12.0144 13.826 11.8357 13.9 11.6493 13.9C11.4629 13.9 11.2841 13.826 11.1522 13.6942L9.33026 11.8723C9.45769 12.7924 9.88528 13.6448 10.5467 14.2972C11.3728 15.1225 12.4548 15.5751 13.5147 15.5391H13.5393C13.632 15.5388 13.7238 15.5568 13.8095 15.5921C13.8952 15.6274 13.973 15.6792 14.0386 15.7447ZM21.5453 25.2782L19.7277 23.4615C19.3823 23.4365 19.0355 23.4868 18.7115 23.6092C18.3875 23.7315 18.094 23.9228 17.8513 24.1699L9.28368 32.7393C8.38104 33.6419 8.31688 35.0455 9.13866 35.8682C9.33673 36.063 9.57319 36.2145 9.833 36.313C10.0928 36.4115 10.3703 36.4549 10.6477 36.4403C11.2589 36.4155 11.8377 36.1591 12.2667 35.7231L20.8343 27.1582C21.2702 26.7292 21.5267 26.1504 21.5515 25.5393C21.5548 25.4522 21.5527 25.365 21.5453 25.2782ZM36.4085 32.3771C36.281 31.4567 35.8523 30.6043 35.1894 29.9531C34.3633 29.127 33.2813 28.6752 32.2223 28.7112C32.1259 28.7145 32.0299 28.6979 31.9403 28.6626C31.8506 28.6272 31.7692 28.5737 31.7011 28.5056L25.3562 22.1607L24.944 22.5729L26.3406 23.9704C26.4724 24.1023 26.5464 24.281 26.5464 24.4674C26.5464 24.6538 26.4724 24.8326 26.3406 24.9645L24.7999 26.5052L29.248 30.9551C29.3161 31.0231 29.3695 31.1044 29.4049 31.1939C29.4402 31.2834 29.4569 31.3792 29.4537 31.4754C29.4185 32.5371 29.8712 33.6199 30.6965 34.4461C31.3485 35.1094 32.2018 35.5381 33.1231 35.6651L31.3003 33.8423C31.2349 33.777 31.1831 33.6994 31.1477 33.6141C31.1123 33.5287 31.0941 33.4372 31.0941 33.3448C31.0941 33.2524 31.1123 33.1609 31.1477 33.0756C31.1831 32.9902 31.2349 32.9127 31.3003 32.8474L33.5925 30.5552C33.7243 30.4234 33.9031 30.3494 34.0895 30.3494C34.2759 30.3494 34.4547 30.4234 34.5865 30.5552L36.4085 32.3771Z"
        fill="#31B9E4" />
</svg>
