<svg fill="none" height="54" viewBox="0 0 232 54" width="232" xmlns="http://www.w3.org/2000/svg">
    <path
        d="M50.9087 39V18.6H57.2987C59.5187 18.6 61.4187 19.11 62.9987 20.13C64.5787 21.13 65.3687 22.8 65.3687 25.14C65.3487 27.46 64.4887 29.17 62.7887 30.27C61.1087 31.35 59.1887 31.89 57.0287 31.89H54.7787V39H50.9087ZM57.1787 21.84H54.7787V28.68H57.2387C58.3987 28.68 59.3387 28.42 60.0587 27.9C60.7787 27.36 61.1787 26.52 61.2587 25.38C61.2587 24.06 60.8987 23.14 60.1787 22.62C59.4587 22.1 58.4587 21.84 57.1787 21.84ZM70.4213 18C71.0413 18 71.5613 18.21 71.9813 18.63C72.4213 19.05 72.6413 19.57 72.6413 20.19C72.6413 20.81 72.4213 21.33 71.9813 21.75C71.5613 22.17 71.0413 22.38 70.4213 22.38C69.8213 22.38 69.3113 22.17 68.8913 21.75C68.4713 21.33 68.2613 20.81 68.2613 20.19C68.2613 19.57 68.4713 19.05 68.8913 18.63C69.3113 18.21 69.8213 18 70.4213 18ZM72.3713 24.45V39H68.4713V24.45H72.3713ZM83.0771 27.39C81.9771 27.39 81.1171 27.81 80.4971 28.65C79.8771 29.47 79.5671 30.5 79.5671 31.74C79.5671 33 79.8771 34.03 80.4971 34.83C81.1171 35.63 81.9771 36.03 83.0771 36.03C83.7571 36.03 84.3671 35.95 84.9071 35.79C85.4671 35.61 86.0971 35.36 86.7971 35.04L87.9071 37.86C87.2271 38.38 86.3971 38.76 85.4171 39C84.4571 39.24 83.6671 39.36 83.0471 39.36C80.6871 39.36 78.8471 38.67 77.5271 37.29C76.2071 35.91 75.5471 34.06 75.5471 31.74C75.5471 29.42 76.2071 27.56 77.5271 26.16C78.8471 24.76 80.6871 24.06 83.0471 24.06C83.6671 24.06 84.4471 24.19 85.3871 24.45C86.3471 24.71 87.1871 25.09 87.9071 25.59L86.7971 28.38C86.0971 28.06 85.4671 27.82 84.9071 27.66C84.3671 27.48 83.7571 27.39 83.0771 27.39ZM94.817 17.82V29.76L101.057 24.03L103.247 26.79L99.167 30.36L104.507 39H100.037L96.377 32.85L94.817 34.23V39H90.947V18.15L94.817 17.82ZM116.557 34.65C116.557 35.07 116.727 35.45 117.067 35.79C117.407 36.11 117.857 36.27 118.417 36.27C118.957 36.27 119.497 36.15 120.037 35.91C120.597 35.67 121.127 35.31 121.627 34.83V32.61H118.687C118.007 32.61 117.477 32.82 117.097 33.24C116.737 33.66 116.557 34.13 116.557 34.65ZM118.477 39.36C116.697 39.36 115.377 38.93 114.517 38.07C113.657 37.19 113.227 36.05 113.227 34.65C113.227 33.15 113.737 32 114.757 31.2C115.777 30.4 117.107 30 118.747 30H121.597C121.577 29.26 121.357 28.69 120.937 28.29C120.537 27.87 119.977 27.66 119.257 27.66C118.577 27.66 117.837 27.76 117.037 27.96C116.237 28.14 115.567 28.36 115.027 28.62L113.977 25.38C114.537 25 115.387 24.69 116.527 24.45C117.687 24.19 118.577 24.06 119.197 24.06C120.937 24.06 122.427 24.57 123.667 25.59C124.907 26.59 125.527 27.87 125.527 29.43V39H123.517L122.557 37.77C122.017 38.19 121.377 38.56 120.637 38.88C119.917 39.2 119.197 39.36 118.477 39.36ZM136.866 34.5C137.486 34.82 138.276 35.14 139.236 35.46C140.196 35.78 141.106 35.94 141.966 35.94C143.186 35.94 144.096 35.75 144.696 35.37C145.316 34.99 145.626 34.44 145.626 33.72C145.626 33.04 145.216 32.44 144.396 31.92C143.596 31.38 142.706 30.86 141.726 30.36C140.286 29.62 138.906 28.75 137.586 27.75C136.266 26.75 135.616 25.36 135.636 23.58C135.656 22.04 136.266 20.75 137.466 19.71C138.686 18.65 140.416 18.12 142.656 18.12C143.676 18.12 144.696 18.28 145.716 18.6C146.736 18.92 147.636 19.27 148.416 19.65L147.126 22.77C146.506 22.47 145.836 22.19 145.116 21.93C144.396 21.65 143.596 21.51 142.716 21.51C141.856 21.51 141.126 21.68 140.526 22.02C139.946 22.36 139.656 22.88 139.656 23.58C139.656 24.34 140.036 24.97 140.796 25.47C141.556 25.97 142.456 26.5 143.496 27.06C144.956 27.8 146.346 28.67 147.666 29.67C149.006 30.67 149.666 32.04 149.646 33.78C149.626 35.4 148.966 36.74 147.666 37.8C146.366 38.86 144.486 39.39 142.026 39.39C141.166 39.39 140.056 39.2 138.696 38.82C137.356 38.44 136.456 38.05 135.996 37.65L136.866 34.5ZM160.288 39.36C157.768 39.36 155.778 38.67 154.318 37.29C152.878 35.91 152.158 34.06 152.158 31.74C152.158 29.42 152.808 27.56 154.108 26.16C155.428 24.76 157.218 24.06 159.478 24.06C161.758 24.06 163.428 24.82 164.488 26.34C165.568 27.84 166.108 29.62 166.108 31.68V32.88H156.298C156.478 33.84 156.918 34.61 157.618 35.19C158.318 35.75 159.238 36.03 160.378 36.03C161.038 36.03 161.628 35.95 162.148 35.79C162.688 35.61 163.308 35.36 164.008 35.04L165.148 37.86C164.468 38.38 163.638 38.76 162.658 39C161.698 39.24 160.908 39.36 160.288 39.36ZM162.418 30.27C162.218 29.29 161.858 28.57 161.338 28.11C160.818 27.63 160.168 27.39 159.388 27.39C158.588 27.39 157.918 27.64 157.378 28.14C156.838 28.62 156.488 29.33 156.328 30.27H162.418ZM177.086 24.45L177.866 27.57C177.206 27.57 176.436 27.76 175.556 28.14C174.696 28.52 173.846 29.08 173.006 29.82V39H169.106V24.45H171.146L172.436 26.58C173.036 26.06 173.766 25.58 174.626 25.14C175.486 24.68 176.306 24.45 177.086 24.45ZM183.758 39L178.178 24.99L182.198 24.45L185.558 33.27L188.738 24.45H192.848L187.118 39H183.758ZM196.808 18C197.428 18 197.948 18.21 198.368 18.63C198.808 19.05 199.028 19.57 199.028 20.19C199.028 20.81 198.808 21.33 198.368 21.75C197.948 22.17 197.428 22.38 196.808 22.38C196.208 22.38 195.698 22.17 195.278 21.75C194.858 21.33 194.648 20.81 194.648 20.19C194.648 19.57 194.858 19.05 195.278 18.63C195.698 18.21 196.208 18 196.808 18ZM198.758 24.45V39H194.858V24.45H198.758ZM209.464 27.39C208.364 27.39 207.504 27.81 206.884 28.65C206.264 29.47 205.954 30.5 205.954 31.74C205.954 33 206.264 34.03 206.884 34.83C207.504 35.63 208.364 36.03 209.464 36.03C210.144 36.03 210.754 35.95 211.294 35.79C211.854 35.61 212.484 35.36 213.184 35.04L214.294 37.86C213.614 38.38 212.784 38.76 211.804 39C210.844 39.24 210.054 39.36 209.434 39.36C207.074 39.36 205.234 38.67 203.914 37.29C202.594 35.91 201.934 34.06 201.934 31.74C201.934 29.42 202.594 27.56 203.914 26.16C205.234 24.76 207.074 24.06 209.434 24.06C210.054 24.06 210.834 24.19 211.774 24.45C212.734 24.71 213.574 25.09 214.294 25.59L213.184 28.38C212.484 28.06 211.854 27.82 211.294 27.66C210.754 27.48 210.144 27.39 209.464 27.39ZM224.654 39.36C222.134 39.36 220.144 38.67 218.684 37.29C217.244 35.91 216.524 34.06 216.524 31.74C216.524 29.42 217.174 27.56 218.474 26.16C219.794 24.76 221.584 24.06 223.844 24.06C226.124 24.06 227.794 24.82 228.854 26.34C229.934 27.84 230.474 29.62 230.474 31.68V32.88H220.664C220.844 33.84 221.284 34.61 221.984 35.19C222.684 35.75 223.604 36.03 224.744 36.03C225.404 36.03 225.994 35.95 226.514 35.79C227.054 35.61 227.674 35.36 228.374 35.04L229.514 37.86C228.834 38.38 228.004 38.76 227.024 39C226.064 39.24 225.274 39.36 224.654 39.36ZM226.784 30.27C226.584 29.29 226.224 28.57 225.704 28.11C225.184 27.63 224.534 27.39 223.754 27.39C222.954 27.39 222.284 27.64 221.744 28.14C221.204 28.62 220.854 29.33 220.694 30.27H226.784Z"
        fill="#1F1F29" />
    <path
        d="M19.2997 29.708C19.4315 29.8399 19.5055 30.0186 19.5055 30.205C19.5055 30.3914 19.4315 30.5702 19.2997 30.702L11.3851 38.6175C11.3198 38.6827 11.2423 38.7345 11.1569 38.7698C11.0716 38.8051 10.9802 38.8233 10.8878 38.8232C10.7013 38.8231 10.5225 38.749 10.3907 38.617C10.2588 38.4851 10.1848 38.3062 10.1849 38.1197C10.185 37.9332 10.2592 37.7544 10.3911 37.6226L18.3057 29.708C18.4375 29.5762 18.6163 29.5022 18.8027 29.5022C18.9891 29.5022 19.1678 29.5762 19.2997 29.708ZM37.646 38.1455C37.6103 38.2617 37.5451 38.3666 37.4567 38.4501C37.3684 38.5335 37.2599 38.5926 37.1419 38.6217C37.0239 38.6507 36.9004 38.6487 36.7834 38.6157C36.6664 38.5828 36.5599 38.5201 36.4744 38.4338L34.0882 36.0476L32.7918 37.3448L35.1789 39.7328C35.2645 39.8186 35.3265 39.9252 35.3589 40.042C35.3912 40.1589 35.3927 40.2821 35.3634 40.3998C35.334 40.5174 35.2747 40.6254 35.1913 40.7134C35.1078 40.8014 35.003 40.8662 34.8871 40.9018C34.4574 41.0319 34.0107 41.0973 33.5617 41.096C32.1871 41.096 30.7694 40.5071 29.7024 39.4401C28.682 38.4197 28.0896 37.0873 28.0483 35.7435L23.4446 31.1389C23.3876 31.1073 23.3352 31.068 23.2891 31.022L22.7995 30.5324C22.6147 31.1439 22.281 31.6999 21.8283 32.1505L13.2616 40.7172C12.5814 41.4053 11.6647 41.8088 10.6978 41.8457H10.566C10.117 41.8502 9.67164 41.7653 9.25578 41.596C8.83992 41.4267 8.4619 41.1764 8.14374 40.8596C6.77352 39.4894 6.83856 37.1937 8.28964 35.7426L16.8563 27.1759C17.307 26.7236 17.8626 26.39 18.4735 26.2047L17.9857 25.7169C17.9397 25.6707 17.9004 25.6184 17.8688 25.5613L13.2502 20.9418C11.9072 20.9014 10.5757 20.309 9.55878 19.2886C8.14286 17.8709 7.56893 15.8371 8.09628 14.103C8.13171 13.9869 8.1966 13.882 8.28463 13.7984C8.37266 13.7148 8.48083 13.6554 8.59861 13.6261C8.71639 13.5967 8.83977 13.5983 8.95674 13.6307C9.07371 13.6632 9.18029 13.7254 9.2661 13.8112L11.6532 16.1975L12.9505 14.8993L10.5599 12.5175C10.474 12.4317 10.4118 12.3251 10.3794 12.2081C10.3469 12.0911 10.3453 11.9678 10.3747 11.85C10.4041 11.7322 10.4634 11.624 10.547 11.536C10.6306 11.448 10.7355 11.3831 10.8516 11.3477C12.584 10.8203 14.6195 11.3925 16.0372 12.8093C17.0585 13.8297 17.6509 15.1621 17.6922 16.5068L23.8445 22.6592L33.32 13.1775C33.3686 13.1276 33.4247 13.0855 33.4861 13.0527L36.7644 11.2949C36.8973 11.2243 37.0492 11.1981 37.198 11.2202C37.3468 11.2424 37.4846 11.3116 37.5911 11.4178C37.6976 11.5241 37.7672 11.6616 37.7898 11.8104C37.8123 11.9591 37.7866 12.1111 37.7163 12.2441L35.9515 15.5225C35.919 15.5829 35.8778 15.6383 35.8293 15.6868L26.3503 25.1658L32.4894 31.305C33.8324 31.3454 35.1631 31.9378 36.1808 32.9582C37.6003 34.3759 38.1733 36.4105 37.646 38.142V38.1455ZM24.8491 28.467L20.5425 24.1604L19.4974 25.2045L23.8041 29.5111L24.8491 28.467ZM23.4288 25.0568L23.95 25.578L34.7605 14.7675L35.367 13.6407L34.2393 14.2463L23.4288 25.0568ZM14.0386 19.7447L18.5025 24.2087L20.0441 22.6671C20.176 22.5353 20.3547 22.4613 20.5412 22.4613C20.7276 22.4613 20.9063 22.5353 21.0382 22.6671L22.4339 24.0628L22.8461 23.6506L16.4907 17.2952C16.4225 17.2271 16.3691 17.1456 16.3337 17.056C16.2983 16.9663 16.2818 16.8704 16.285 16.774C16.3211 15.7123 15.8684 14.6295 15.0423 13.8042C14.3906 13.1404 13.5372 12.7113 12.6156 12.5843L14.4385 14.408C14.5702 14.5399 14.6442 14.7186 14.6442 14.905C14.6442 15.0914 14.5702 15.2702 14.4385 15.402L12.1463 17.6942C12.0144 17.826 11.8357 17.9 11.6493 17.9C11.4629 17.9 11.2841 17.826 11.1522 17.6942L9.33026 15.8723C9.45769 16.7924 9.88528 17.6448 10.5467 18.2972C11.3728 19.1225 12.4548 19.5751 13.5147 19.5391H13.5393C13.632 19.5388 13.7238 19.5568 13.8095 19.5921C13.8952 19.6274 13.973 19.6792 14.0386 19.7447ZM21.5453 29.2782L19.7277 27.4615C19.3823 27.4365 19.0355 27.4868 18.7115 27.6092C18.3875 27.7315 18.094 27.9228 17.8513 28.1699L9.28368 36.7393C8.38104 37.6419 8.31688 39.0455 9.13866 39.8682C9.33673 40.063 9.57319 40.2145 9.833 40.313C10.0928 40.4115 10.3703 40.4549 10.6477 40.4403C11.2589 40.4155 11.8377 40.1591 12.2667 39.7231L20.8343 31.1582C21.2702 30.7292 21.5267 30.1504 21.5515 29.5393C21.5548 29.4522 21.5527 29.365 21.5453 29.2782ZM36.4085 36.3771C36.281 35.4567 35.8523 34.6043 35.1894 33.9531C34.3633 33.127 33.2813 32.6752 32.2223 32.7112C32.1259 32.7145 32.0299 32.6979 31.9403 32.6626C31.8506 32.6272 31.7692 32.5737 31.7011 32.5056L25.3562 26.1607L24.944 26.5729L26.3406 27.9704C26.4724 28.1023 26.5464 28.281 26.5464 28.4674C26.5464 28.6538 26.4724 28.8326 26.3406 28.9645L24.7999 30.5052L29.248 34.9551C29.3161 35.0231 29.3695 35.1044 29.4048 35.1939C29.4402 35.2834 29.4569 35.3792 29.4537 35.4754C29.4185 36.5371 29.8712 37.6199 30.6965 38.4461C31.3485 39.1094 32.2018 39.5381 33.1231 39.6651L31.3003 37.8423C31.2349 37.777 31.183 37.6994 31.1477 37.6141C31.1123 37.5287 31.0941 37.4372 31.0941 37.3448C31.0941 37.2524 31.1123 37.1609 31.1477 37.0756C31.183 36.9902 31.2349 36.9127 31.3003 36.8474L33.5925 34.5552C33.7243 34.4234 33.9031 34.3494 34.0895 34.3494C34.2759 34.3494 34.4547 34.4234 34.5865 34.5552L36.4085 36.3771Z"
        fill="#1F1F29" />
</svg>
