<svg fill="none" height="25" viewBox="0 0 22 25" width="22" xmlns="http://www.w3.org/2000/svg">
    <path
        d="M9.36238 1.80592C10.241 0.731359 11.7589 0.731359 12.6376 1.80592L13.4521 2.80212C13.8961 3.3452 14.5343 3.63965 15.193 3.60536L16.4015 3.54246C17.7049 3.47461 18.7783 4.67018 18.7173 6.122L18.6609 7.46794C18.6301 8.20167 18.8945 8.91253 19.382 9.40711L20.2764 10.3144C21.2412 11.293 21.2412 12.9837 20.2764 13.9624L19.382 14.8697C18.8945 15.3642 18.6301 16.0751 18.6609 16.8088L18.7173 18.1548C18.7783 19.6065 17.7049 20.8022 16.4015 20.7342L15.193 20.6714C14.5343 20.6372 13.8961 20.9316 13.4521 21.4746L12.6376 22.4708C11.7589 23.5454 10.241 23.5454 9.36238 22.4708L8.54787 21.4746C8.10383 20.9316 7.46563 20.6372 6.80688 20.6714L5.59851 20.7342C4.29507 20.8022 3.22169 19.6065 3.28261 18.1548L3.33908 16.8088C3.36987 16.0751 3.10551 15.3642 2.61794 14.8697L1.72356 13.9624C0.758815 12.9837 0.758815 11.293 1.72356 10.3144L2.61794 9.40711C3.10551 8.91253 3.36987 8.20167 3.33908 7.46793L3.28261 6.122C3.22169 4.67018 4.29507 3.47461 5.59851 3.54246L6.80688 3.60536C7.46563 3.63965 8.10383 3.3452 8.54788 2.80212L9.36238 1.80592Z"
        stroke="#31B9E4" stroke-width="2" />
    <path
        d="M11.0001 15.8389C12.835 15.8389 14.3225 14.1821 14.3225 12.1383C14.3225 10.0946 12.835 8.43774 11.0001 8.43774C9.16521 8.43774 7.67773 10.0946 7.67773 12.1383C7.67773 14.1821 9.16521 15.8389 11.0001 15.8389Z"
        stroke="#31B9E4" stroke-width="2" />
</svg>
