<svg fill="none" height="54" viewBox="0 0 227 54" width="227" xmlns="http://www.w3.org/2000/svg">
    <path
        d="M43.5317 39V18.6H49.9217C52.1417 18.6 54.0417 19.11 55.6217 20.13C57.2017 21.13 57.9917 22.8 57.9917 25.14C57.9717 27.46 57.1117 29.17 55.4117 30.27C53.7317 31.35 51.8117 31.89 49.6517 31.89H47.4017V39H43.5317ZM49.8017 21.84H47.4017V28.68H49.8617C51.0217 28.68 51.9617 28.42 52.6817 27.9C53.4017 27.36 53.8017 26.52 53.8817 25.38C53.8817 24.06 53.5217 23.14 52.8017 22.62C52.0817 22.1 51.0817 21.84 49.8017 21.84ZM63.0444 18C63.6644 18 64.1844 18.21 64.6044 18.63C65.0444 19.05 65.2644 19.57 65.2644 20.19C65.2644 20.81 65.0444 21.33 64.6044 21.75C64.1844 22.17 63.6644 22.38 63.0444 22.38C62.4444 22.38 61.9344 22.17 61.5144 21.75C61.0944 21.33 60.8844 20.81 60.8844 20.19C60.8844 19.57 61.0944 19.05 61.5144 18.63C61.9344 18.21 62.4444 18 63.0444 18ZM64.9944 24.45V39H61.0944V24.45H64.9944ZM75.7002 27.39C74.6002 27.39 73.7402 27.81 73.1202 28.65C72.5002 29.47 72.1902 30.5 72.1902 31.74C72.1902 33 72.5002 34.03 73.1202 34.83C73.7402 35.63 74.6002 36.03 75.7002 36.03C76.3802 36.03 76.9902 35.95 77.5302 35.79C78.0902 35.61 78.7202 35.36 79.4202 35.04L80.5302 37.86C79.8502 38.38 79.0202 38.76 78.0402 39C77.0802 39.24 76.2902 39.36 75.6702 39.36C73.3102 39.36 71.4702 38.67 70.1502 37.29C68.8302 35.91 68.1702 34.06 68.1702 31.74C68.1702 29.42 68.8302 27.56 70.1502 26.16C71.4702 24.76 73.3102 24.06 75.6702 24.06C76.2902 24.06 77.0702 24.19 78.0102 24.45C78.9702 24.71 79.8102 25.09 80.5302 25.59L79.4202 28.38C78.7202 28.06 78.0902 27.82 77.5302 27.66C76.9902 27.48 76.3802 27.39 75.7002 27.39ZM87.44 17.82V29.76L93.68 24.03L95.87 26.79L91.79 30.36L97.13 39H92.66L89 32.85L87.44 34.23V39H83.57V18.15L87.44 17.82ZM109.18 34.65C109.18 35.07 109.35 35.45 109.69 35.79C110.03 36.11 110.48 36.27 111.04 36.27C111.58 36.27 112.12 36.15 112.66 35.91C113.22 35.67 113.75 35.31 114.25 34.83V32.61H111.31C110.63 32.61 110.1 32.82 109.72 33.24C109.36 33.66 109.18 34.13 109.18 34.65ZM111.1 39.36C109.32 39.36 108 38.93 107.14 38.07C106.28 37.19 105.85 36.05 105.85 34.65C105.85 33.15 106.36 32 107.38 31.2C108.4 30.4 109.73 30 111.37 30H114.22C114.2 29.26 113.98 28.69 113.56 28.29C113.16 27.87 112.6 27.66 111.88 27.66C111.2 27.66 110.46 27.76 109.66 27.96C108.86 28.14 108.19 28.36 107.65 28.62L106.6 25.38C107.16 25 108.01 24.69 109.15 24.45C110.31 24.19 111.2 24.06 111.82 24.06C113.56 24.06 115.05 24.57 116.29 25.59C117.53 26.59 118.15 27.87 118.15 29.43V39H116.14L115.18 37.77C114.64 38.19 114 38.56 113.26 38.88C112.54 39.2 111.82 39.36 111.1 39.36ZM135.069 39L127.149 19.14L130.989 18.6L136.779 33.69L142.389 18.6H146.319L138.369 39H135.069ZM155.9 39.36C153.38 39.36 151.39 38.67 149.93 37.29C148.49 35.91 147.77 34.06 147.77 31.74C147.77 29.42 148.42 27.56 149.72 26.16C151.04 24.76 152.83 24.06 155.09 24.06C157.37 24.06 159.04 24.82 160.1 26.34C161.18 27.84 161.72 29.62 161.72 31.68V32.88H151.91C152.09 33.84 152.53 34.61 153.23 35.19C153.93 35.75 154.85 36.03 155.99 36.03C156.65 36.03 157.24 35.95 157.76 35.79C158.3 35.61 158.92 35.36 159.62 35.04L160.76 37.86C160.08 38.38 159.25 38.76 158.27 39C157.31 39.24 156.52 39.36 155.9 39.36ZM158.03 30.27C157.83 29.29 157.47 28.57 156.95 28.11C156.43 27.63 155.78 27.39 155 27.39C154.2 27.39 153.53 27.64 152.99 28.14C152.45 28.62 152.1 29.33 151.94 30.27H158.03ZM168.797 25.41C169.437 24.91 170.167 24.53 170.987 24.27C171.827 24.01 172.577 23.88 173.237 23.88C175.217 23.88 176.617 24.46 177.437 25.62C178.277 26.78 178.697 28.2 178.697 29.88V39H174.797V30.06C174.797 29.14 174.577 28.44 174.137 27.96C173.697 27.46 173.047 27.21 172.187 27.21C171.627 27.21 171.047 27.36 170.447 27.66C169.847 27.94 169.297 28.27 168.797 28.65V39H164.927V18.15L168.797 17.82V25.41ZM184.216 18C184.836 18 185.356 18.21 185.776 18.63C186.216 19.05 186.436 19.57 186.436 20.19C186.436 20.81 186.216 21.33 185.776 21.75C185.356 22.17 184.836 22.38 184.216 22.38C183.616 22.38 183.106 22.17 182.686 21.75C182.266 21.33 182.056 20.81 182.056 20.19C182.056 19.57 182.266 19.05 182.686 18.63C183.106 18.21 183.616 18 184.216 18ZM186.166 24.45V39H182.266V24.45H186.166ZM196.872 27.39C195.772 27.39 194.912 27.81 194.292 28.65C193.672 29.47 193.362 30.5 193.362 31.74C193.362 33 193.672 34.03 194.292 34.83C194.912 35.63 195.772 36.03 196.872 36.03C197.552 36.03 198.162 35.95 198.702 35.79C199.262 35.61 199.892 35.36 200.592 35.04L201.702 37.86C201.022 38.38 200.192 38.76 199.212 39C198.252 39.24 197.462 39.36 196.842 39.36C194.482 39.36 192.642 38.67 191.322 37.29C190.002 35.91 189.342 34.06 189.342 31.74C189.342 29.42 190.002 27.56 191.322 26.16C192.642 24.76 194.482 24.06 196.842 24.06C197.462 24.06 198.242 24.19 199.182 24.45C200.142 24.71 200.982 25.09 201.702 25.59L200.592 28.38C199.892 28.06 199.262 27.82 198.702 27.66C198.162 27.48 197.552 27.39 196.872 27.39ZM208.612 17.82V39H204.742V18.15L208.612 17.82ZM220.031 39.36C217.511 39.36 215.521 38.67 214.061 37.29C212.621 35.91 211.901 34.06 211.901 31.74C211.901 29.42 212.551 27.56 213.851 26.16C215.171 24.76 216.961 24.06 219.221 24.06C221.501 24.06 223.171 24.82 224.231 26.34C225.311 27.84 225.851 29.62 225.851 31.68V32.88H216.041C216.221 33.84 216.661 34.61 217.361 35.19C218.061 35.75 218.981 36.03 220.121 36.03C220.781 36.03 221.371 35.95 221.891 35.79C222.431 35.61 223.051 35.36 223.751 35.04L224.891 37.86C224.211 38.38 223.381 38.76 222.401 39C221.441 39.24 220.651 39.36 220.031 39.36ZM222.161 30.27C221.961 29.29 221.601 28.57 221.081 28.11C220.561 27.63 219.911 27.39 219.131 27.39C218.331 27.39 217.661 27.64 217.121 28.14C216.581 28.62 216.231 29.33 216.071 30.27H222.161Z"
        fill="#1F1F29" />
    <path
        d="M20.4074 14.875C22.3328 14.875 24.0113 16.1847 24.4794 18.0522L24.977 20.0417H26.1562C26.6467 20.0417 27.052 20.4061 27.1162 20.879L27.125 21.0104C27.125 21.5009 26.7605 21.9062 26.2877 21.9703L26.1562 21.9792H25.4639L25.7326 23.0467C26.5706 23.5567 27.1303 24.4785 27.1303 25.5312V36.5063C27.1303 37.7547 26.1183 38.7667 24.8699 38.7667H22.9271C21.6787 38.7667 20.6667 37.7547 20.6667 36.5063L20.6654 34.8958H10.3385L10.3386 36.5063C10.3386 37.7547 9.32658 38.7667 8.07819 38.7667H6.13542C4.88702 38.7667 3.875 37.7547 3.875 36.5063V25.5312C3.875 24.4788 4.4345 23.5569 5.27229 23.0469L5.53996 21.9792H4.84375C4.3533 21.9792 3.94799 21.6147 3.88385 21.1419L3.875 21.0104C3.875 20.52 4.23944 20.1147 4.7123 20.0505L4.84375 20.0417H6.02304L6.5216 18.0548C6.98879 16.186 8.66788 14.875 10.5942 14.875H20.4074ZM8.401 34.8958H5.81121L5.8125 36.5063C5.8125 36.6845 5.95708 36.8292 6.13542 36.8292H8.07819C8.25653 36.8292 8.4011 36.6845 8.4011 36.5063L8.401 34.8958ZM25.1927 34.8958H22.6029L22.6042 36.5063C22.6042 36.6845 22.7487 36.8292 22.9271 36.8292H24.8699C25.0483 36.8292 25.1928 36.6845 25.1928 36.5063L25.1927 34.8958ZM24.224 24.5625H6.78125C6.24623 24.5625 5.8125 24.9962 5.8125 25.5312V32.9583H25.1928V25.5312C25.1928 24.9962 24.7591 24.5625 24.224 24.5625ZM13.2383 29.0833H17.7613C18.2965 29.0833 18.7301 29.5171 18.7301 30.0521C18.7301 30.5425 18.3657 30.9479 17.8928 31.012L17.7613 31.0208H13.2383C12.7033 31.0208 12.2695 30.5871 12.2695 30.0521C12.2695 29.5616 12.634 29.1563 13.1068 29.0921L13.2383 29.0833ZM21.9583 26.5C22.6716 26.5 23.2499 27.0783 23.2499 27.7917C23.2499 28.5049 22.6716 29.0832 21.9583 29.0832C21.2449 29.0832 20.6667 28.5049 20.6667 27.7917C20.6667 27.0783 21.2449 26.5 21.9583 26.5ZM9.04163 26.5C9.75499 26.5 10.3333 27.0783 10.3333 27.7917C10.3333 28.5049 9.75499 29.0832 9.04163 29.0832C8.32828 29.0832 7.75 28.5049 7.75 27.7917C7.75 27.0783 8.32828 26.5 9.04163 26.5ZM20.4074 16.8125H10.5942C9.55694 16.8125 8.65281 17.5184 8.40124 18.5247L7.37617 22.625H23.6283L22.6 18.5233C22.348 17.5177 21.4441 16.8125 20.4074 16.8125Z"
        fill="#1F1F29" />
</svg>
